<svg width="556" height="460" viewBox="0 0 556 460" fill="none" xmlns="http://www.w3.org/2000/svg">
<g clip-path="url(#clip0_3_88)">
<path d="M266.146 192.654H203.442C198.987 192.654 194.714 194.426 191.564 197.582C188.414 200.737 186.644 205.016 186.644 209.478C186.644 213.941 188.414 218.22 191.564 221.375C194.714 224.531 198.987 226.303 203.442 226.303H216.885V286.869C216.885 291.331 218.655 295.611 221.805 298.766C224.955 301.921 229.228 303.694 233.683 303.694C238.138 303.694 242.41 301.921 245.56 298.766C248.71 295.611 250.48 291.331 250.48 286.869V226.303H266.16C270.615 226.301 274.886 224.527 278.035 221.371C281.184 218.214 282.952 213.934 282.95 209.472C282.949 205.01 281.177 200.731 278.026 197.577C274.874 194.423 270.601 192.652 266.146 192.654ZM161.455 270.045H135.148V266.685H150.827C155.166 266.511 159.269 264.662 162.277 261.526C165.285 258.39 166.965 254.209 166.965 249.86C166.965 245.511 165.285 241.331 162.277 238.195C159.269 235.058 155.166 233.21 150.827 233.036H135.148V227.423H161.469C165.807 227.249 169.91 225.4 172.918 222.264C175.927 219.128 177.607 214.947 177.607 210.598C177.607 206.249 175.927 202.069 172.918 198.933C169.91 195.796 165.807 193.948 161.469 193.774H118.364C109.083 193.774 101.566 201.316 101.566 210.598V286.856C101.566 296.138 109.083 303.68 118.364 303.68H161.469C165.839 303.555 169.989 301.727 173.035 298.585C176.082 295.443 177.785 291.236 177.784 286.856C177.782 282.476 176.075 278.27 173.026 275.131C169.977 271.991 165.826 270.167 161.455 270.045ZM86.9913 231.214C86.9608 230.436 86.8753 229.66 86.7354 228.894C84.5128 216.737 78.1952 206.767 68.4427 200.034C48.1969 186.083 19.8958 190.859 16.7438 191.44C8.79629 192.924 3.03101 199.872 3.03101 207.981V284.238C3.03101 288.7 4.80073 292.98 7.95086 296.135C11.101 299.29 15.3735 301.063 19.8285 301.063C24.2834 301.063 28.5559 299.29 31.706 296.135C34.8562 292.98 36.6259 288.7 36.6259 284.238V275.779C51.6049 275.86 63.7281 271.906 72.7532 263.933C87.3685 251.007 87.0587 233.211 86.9913 231.214Z" fill="#D1BCA7"/>
<path d="M44.4521 242.264C49.6969 242.264 53.9487 238.006 53.9487 232.752C53.9487 227.499 49.6969 223.24 44.4521 223.24C39.2073 223.24 34.9556 227.499 34.9556 232.752C34.9556 238.006 39.2073 242.264 44.4521 242.264Z" fill="#FBF1E7"/>
<path d="M537.505 71.1169C537.505 65.8685 541.748 62.0098 546.759 62.0098C551.73 62.0098 555.959 65.8685 555.959 71.1169C555.965 72.3254 555.73 73.5229 555.269 74.6397C554.808 75.7564 554.129 76.77 553.273 77.6214C552.416 78.4728 551.4 79.145 550.281 79.5988C549.163 80.0526 547.966 80.2789 546.759 80.2646C545.549 80.2825 544.348 80.059 543.225 79.6071C542.102 79.1553 541.08 78.4841 540.219 77.6327C539.357 76.7813 538.674 75.7667 538.208 74.648C537.742 73.5294 537.503 72.329 537.505 71.1169Z" fill="#D1BCA7"/>
<path d="M546.759 78.7265C550.881 78.7265 554.127 75.4884 554.127 71.1034C554.154 70.1173 553.984 69.1358 553.626 68.2169C553.268 67.2981 552.729 66.4604 552.042 65.7535C551.355 65.0466 550.534 64.4848 549.626 64.1013C548.719 63.7179 547.744 63.5205 546.759 63.5208C545.77 63.5132 544.789 63.7053 543.875 64.0855C542.962 64.4658 542.134 65.0264 541.441 65.7341C540.748 66.4417 540.205 67.2818 539.844 68.2043C539.482 69.1268 539.31 70.1128 539.337 71.1034C539.337 75.5018 542.583 78.7265 546.759 78.7265Z" fill="#FBF1E7"/>
<path d="M544.833 76.3923H543.243V65.8685H547.244C549.736 65.8685 550.948 66.786 550.948 68.8637C550.948 70.7391 549.776 71.5622 548.227 71.751L551.218 76.3923H549.44L546.665 71.832H544.833V76.3923Z" fill="#D1BCA7"/>
<path d="M546.732 70.4828C548.079 70.4828 549.292 70.3884 549.292 68.7693C549.292 67.4606 548.106 67.2312 547.002 67.2312H544.833V70.4828H546.732Z" fill="#FBF1E7"/>
<path d="M459.175 119.999C480.698 119.999 498.145 102.523 498.145 80.9661C498.145 59.409 480.698 41.9335 459.175 41.9335C437.653 41.9335 420.206 59.409 420.206 80.9661C420.206 102.523 437.653 119.999 459.175 119.999Z" fill="#D1BCA7"/>
<path d="M516.869 69.9431C526.956 69.9431 535.134 61.752 535.134 51.6478C535.134 41.5436 526.956 33.3525 516.869 33.3525C506.781 33.3525 498.603 41.5436 498.603 51.6478C498.603 61.752 506.781 69.9431 516.869 69.9431Z" fill="#D1BCA7"/>
<path d="M484.715 39.4644C494.803 39.4644 502.981 31.2733 502.981 21.1691C502.981 11.0649 494.803 2.87383 484.715 2.87383C474.627 2.87383 466.449 11.0649 466.449 21.1691C466.449 31.2733 474.627 39.4644 484.715 39.4644Z" fill="#D1BCA7"/>
<path d="M440.236 36.5906C450.324 36.5906 458.502 28.3995 458.502 18.2953C458.502 8.19109 450.324 7.62939e-06 440.236 7.62939e-06C430.148 7.62939e-06 421.97 8.19109 421.97 18.2953C421.97 28.3995 430.148 36.5906 440.236 36.5906Z" fill="#D1BCA7"/>
<path d="M522.028 114.211C532.115 114.211 540.293 106.02 540.293 95.9154C540.293 85.8112 532.115 77.6201 522.028 77.6201C511.94 77.6201 503.762 85.8112 503.762 95.9154C503.762 106.02 511.94 114.211 522.028 114.211Z" fill="#D1BCA7"/>
<path d="M427.561 359.781C412.177 345.438 389.036 339.826 358.768 343.131C354.651 343.58 350.845 345.537 348.081 348.624C345.316 351.712 343.788 355.714 343.789 359.862V436.119C343.789 444.39 349.797 451.446 357.96 452.728C362.499 453.443 403.004 459.15 427.48 438.561C438.647 429.184 444.708 415.827 445.018 399.974C444.997 392.436 443.438 384.982 440.436 378.07C437.433 371.158 433.052 364.934 427.561 359.781Z" fill="#D1BCA7"/>
<path d="M411.437 399.11C411.854 406.085 408.406 410.659 405.914 412.778C399.179 418.471 387.271 420.131 377.37 420.293V375.904C389.669 376.241 398.977 379.101 404.661 384.39C411.329 390.61 411.45 399.029 411.437 399.11C411.437 399.002 411.437 399.218 411.437 399.11Z" fill="#FBF1E7"/>
<path d="M5.26709 58.0835V134.341C5.26709 138.803 7.03682 143.083 10.1869 146.238C13.3371 149.393 17.6096 151.166 22.0645 151.166C26.5195 151.166 30.792 149.393 33.9421 146.238C37.0923 143.083 38.862 138.803 38.862 134.341V58.0835C38.862 53.6214 37.0923 49.3419 33.9421 46.1867C30.792 43.0315 26.5195 41.2589 22.0645 41.2589C17.6096 41.2589 13.3371 43.0315 10.1869 46.1867C7.03682 49.3419 5.26709 53.6214 5.26709 58.0835ZM153.669 129.335L118.956 56.451C117.594 53.6041 115.46 51.1982 112.798 49.5078C110.136 47.8174 107.053 46.9106 103.902 46.8909C100.75 46.8712 97.6559 47.7394 94.9731 49.3964C92.2903 51.0534 90.1266 53.4325 88.729 56.2621L52.898 129.146C51.0902 133.126 50.9001 137.654 52.3679 141.772C53.8357 145.889 56.8461 149.273 60.7615 151.206C64.6769 153.139 69.1898 153.469 73.3441 152.127C77.4984 150.784 80.9678 147.875 83.0176 144.015L83.9201 142.193H122.553L123.334 143.826C125.329 147.727 128.764 150.694 132.909 152.099C137.054 153.503 141.583 153.233 145.532 151.347C149.482 149.46 152.542 146.105 154.061 141.995C155.58 137.885 155.44 133.343 153.669 129.335Z" fill="#D1BCA7"/>
<path d="M103.802 115.816C109.047 115.816 113.299 111.558 113.299 106.304C113.299 101.051 109.047 96.7924 103.802 96.7924C98.5574 96.7924 94.3057 101.051 94.3057 106.304C94.3057 111.558 98.5574 115.816 103.802 115.816Z" fill="#FBF1E7"/>
<path d="M295.121 135.488L285.045 59.7835C284.574 56.1996 282.962 52.8632 280.448 50.2693C277.935 47.6753 274.653 45.962 271.091 45.3835C267.528 44.8049 263.875 45.3919 260.671 47.0575C257.468 48.723 254.887 51.3783 253.309 54.6296L232.174 97.9392L213.208 55.1962C211.745 51.8789 209.25 49.1244 206.096 47.3438C202.941 45.5632 199.297 44.852 195.706 45.3164C192.115 45.7808 188.77 47.3959 186.171 49.9205C183.572 52.4452 181.857 55.744 181.283 59.3248L168.958 135.029C168.603 137.209 168.681 139.438 169.186 141.588C169.692 143.739 170.615 145.768 171.903 147.561C174.505 151.182 178.436 153.619 182.832 154.336C187.228 155.054 191.729 153.993 195.344 151.386C197.134 150.096 198.652 148.465 199.813 146.587C200.974 144.709 201.754 142.62 202.108 140.439L205.368 120.404L216.091 144.568C217.393 147.49 219.5 149.981 222.165 151.747C224.83 153.513 227.942 154.481 231.136 154.539C234.331 154.597 237.476 153.742 240.203 152.074C242.93 150.406 245.126 147.994 246.533 145.121L259.101 119.405L261.836 139.954C262.427 144.375 264.747 148.379 268.287 151.087C271.826 153.794 276.294 154.982 280.708 154.39C285.121 153.798 289.12 151.474 291.823 147.929C294.526 144.384 295.712 139.909 295.121 135.488ZM355.939 86.6463C349.608 85.1082 347.17 82.032 348.086 78.2003C349.271 76.0415 351.602 75.1915 353.743 74.9757C357.205 74.6249 362.378 77.6066 367.914 83.1519C371.063 86.3062 375.335 88.0782 379.788 88.0782C384.242 88.0782 388.513 86.3062 391.662 83.1519C394.812 79.9976 396.581 75.7194 396.581 71.2586C396.581 66.7977 394.812 62.5196 391.662 59.3653C378.152 45.8327 363.927 39.3025 349.622 41.5827C323.772 45.6843 318.034 62.3201 316.862 64.2494C312.241 76.7027 314.356 87.7122 317.535 93.5543C325.348 107.91 341.849 112.214 345.082 112.929C355.117 115.128 361.96 117.786 360.923 123.304C359.819 125.423 357.623 125.544 354.835 125.706C347.938 126.327 339.398 121.092 337.067 119.189C329.968 113.212 319.421 114.17 313.454 121.294C307.486 128.418 308.402 139.023 315.515 145C317.481 146.673 335.06 161.244 357.057 159.274C360.802 159.126 379.633 157.709 390.329 143.246C394.666 137.363 398.6 128.418 394.747 113.792C393.521 111.472 390.894 95.1599 355.939 86.6463ZM501.499 387.21C495.168 385.659 492.73 382.596 493.646 378.764C494.831 376.605 497.162 375.769 499.303 375.553C502.765 375.202 507.924 378.17 513.474 383.729C516.623 386.883 520.895 388.656 525.348 388.656C529.802 388.656 534.073 386.883 537.222 383.729C540.371 380.575 542.141 376.297 542.141 371.836C542.141 367.375 540.371 363.097 537.222 359.943C523.712 346.41 509.487 339.893 495.181 342.16C469.319 346.275 463.58 362.911 462.422 364.827C457.801 377.293 459.916 388.303 463.095 394.132C470.908 408.487 487.423 412.778 490.642 413.506C500.691 415.706 507.52 418.377 506.483 423.882C505.378 426 503.196 426.121 500.408 426.283C493.498 426.904 484.971 421.669 482.627 419.767C479.205 416.95 474.81 415.601 470.399 416.014C465.989 416.427 461.92 418.568 459.078 421.971C456.236 425.375 454.851 429.765 455.225 434.186C455.599 438.607 457.702 442.701 461.075 445.577C463.055 447.237 480.62 461.822 502.617 459.852C506.362 459.703 525.207 458.287 535.889 443.823C540.226 437.941 544.159 428.995 540.307 414.37C539.081 412.036 536.454 395.724 501.499 387.21Z" fill="#D1BCA7"/>
<path d="M137.384 455.669C169.448 455.669 195.441 429.634 195.441 397.518C195.441 365.402 169.448 339.367 137.384 339.367C105.32 339.367 79.3267 365.402 79.3267 397.518C79.3267 429.634 105.32 455.669 137.384 455.669Z" fill="#D1BCA7"/>
<path d="M137.384 422.897C151.377 422.897 162.721 411.534 162.721 397.518C162.721 383.502 151.377 372.139 137.384 372.139C123.39 372.139 112.046 383.502 112.046 397.518C112.046 411.534 123.39 422.897 137.384 422.897Z" fill="#FBF1E7"/>
<path d="M268.382 455.669C300.446 455.669 326.439 429.634 326.439 397.518C326.439 365.402 300.446 339.367 268.382 339.367C236.318 339.367 210.325 365.402 210.325 397.518C210.325 429.634 236.318 455.669 268.382 455.669Z" fill="#D1BCA7"/>
<path d="M268.382 422.897C282.376 422.897 293.72 411.534 293.72 397.518C293.72 383.502 282.376 372.139 268.382 372.139C254.389 372.139 243.045 383.502 243.045 397.518C243.045 411.534 254.389 422.897 268.382 422.897Z" fill="#FBF1E7"/>
<path d="M62.3676 373.597C66.8226 373.597 71.0951 371.824 74.2452 368.669C77.3953 365.513 79.1651 361.234 79.1651 356.772C79.1651 352.31 77.3953 348.03 74.2452 344.875C71.0951 341.72 66.8226 339.947 62.3676 339.947H16.838C7.55701 339.947 0.0405884 347.476 0.0405884 356.772V433.029C0.0405883 435.239 0.475067 437.426 1.31922 439.468C2.16337 441.509 3.40066 443.364 4.96045 444.926C6.52023 446.488 8.37197 447.728 10.4099 448.573C12.4479 449.419 14.6322 449.854 16.838 449.854C19.0439 449.854 21.2282 449.419 23.2661 448.573C25.3041 447.728 27.1558 446.488 28.7156 444.926C30.2754 443.364 31.5127 441.509 32.3569 439.468C33.201 437.426 33.6355 435.239 33.6355 433.029V409.108H51.1738C54.7392 409.108 58.1586 407.689 60.6797 405.164C63.2008 402.639 64.6171 399.214 64.6171 395.643C64.6171 392.071 63.2008 388.647 60.6797 386.121C58.1586 383.596 54.7392 382.178 51.1738 382.178H33.6355V373.597H62.3676Z" fill="#D1BCA7"/>
</g>
<defs>
<clipPath id="clip0_3_88">
<rect width="556" height="460" fill="white"/>
</clipPath>
</defs>
</svg>
