<svg width="708" height="225" viewBox="0 0 708 225" fill="none" xmlns="http://www.w3.org/2000/svg">
<path d="M664.028 60.5704C634.238 60.5704 617.68 92.2658 617.68 119.626C617.68 150.215 630.706 181.711 663.421 181.711C687.995 181.711 704.381 164.448 706.436 140.524H686.745C685.336 154.655 680.174 170.809 665.541 170.809C646.865 170.809 644.64 144.263 644.64 124.172H707.344C709.769 85.4044 692.199 60.5704 664.028 60.5704ZM680.989 112.662H644.941C644.941 97.9248 650.498 72.3816 663.725 72.3816C676.844 72.3834 681.7 90.3559 680.989 112.662ZM563.153 59.9646C533.363 59.9646 516.805 91.66 516.805 119.021C516.805 149.61 529.832 181.105 562.547 181.105C587.122 181.105 603.508 163.844 605.561 139.919H585.872C584.462 154.048 579.301 170.201 564.668 170.201C545.991 170.201 543.767 143.655 543.767 123.564H606.472C608.894 84.7986 591.327 59.9646 563.153 59.9646ZM580.117 112.058H544.07C544.07 97.3208 549.627 71.7776 562.852 71.7776C575.972 71.7776 580.829 89.7483 580.117 112.058ZM407.452 152.033C402.302 152.033 387.458 152.94 384.127 152.94C375.143 152.94 370.193 149.004 370.193 143.552C370.193 140.523 371.707 139.919 373.222 137.797C398.971 145.861 429.565 130.944 429.565 102.363C429.565 81.4667 423.507 80.2551 423.507 74.5001C423.507 71.7921 427.863 69.9566 432.852 69.9566V62.0849C423.654 62.0849 419.386 65.1121 415.024 65.1121C406.543 65.1121 400.181 59.3588 385.64 59.3588C363.025 59.3588 343.838 75.1077 343.838 100.245C343.838 116.333 351.516 129.384 365.648 134.769C353.078 142.937 354.487 163.55 363.226 170.203C353.324 174.445 345.959 181.002 345.959 195.645C345.959 212.707 361.209 224.717 386.551 224.717C412.706 224.717 435.626 210.682 435.626 183.832C435.624 166.673 421.49 152.033 407.452 152.033ZM386.551 68.4458C396.349 68.4458 401.091 83.7865 401.091 96.6116C401.091 113.467 394.929 125.989 385.945 125.989C376.147 125.989 371.101 111.252 371.101 96.3087C371.101 81.3652 376.553 68.4458 386.551 68.4458ZM386.248 213.815C366.359 213.815 359.591 203.415 359.591 191.406C359.591 185.045 364.135 178.684 371.101 175.354C382.006 182.016 393.517 177.775 400.789 177.775C408.967 177.775 416.238 183.122 416.238 193.827C416.236 206.139 400.486 213.815 386.248 213.815ZM140.881 57.2404C111.091 57.2404 94.5346 88.9358 94.5346 116.296C94.5346 146.885 107.56 178.379 140.275 178.379C164.848 178.379 181.236 161.118 183.289 137.193H163.6C162.189 151.324 157.031 167.479 142.396 167.479C123.719 167.479 121.495 140.933 121.495 120.84H184.2C186.622 82.0743 169.052 57.2404 140.881 57.2404ZM157.844 109.331H121.796C121.796 94.5947 127.353 69.0516 140.578 69.0516C153.698 69.0516 158.555 87.0241 157.844 109.331ZM55.1544 104.485C78.3758 104.485 99.9862 88.4334 99.9862 53.6056C99.9862 30.8919 86.2511 8.48657 62.4238 8.48657H0.0217702V16.4145C5.7219 16.4145 10.3045 21.0341 10.3045 26.7312V157.113C10.3064 158.467 10.0413 159.809 9.52431 161.06C9.00734 162.312 8.24865 163.45 7.29162 164.408C6.3346 165.366 5.19801 166.126 3.94685 166.645C2.6957 167.164 1.35451 167.431 0 167.432V175.352H56.0615V167.479H47.8905C45.1536 167.478 42.5289 166.391 40.5937 164.456C38.6586 162.521 37.5715 159.897 37.5715 157.16L37.5842 104.485H55.1544ZM38.4931 18.3226H50.6099C63.8352 18.3226 70.2991 37.1458 70.2991 55.1201C70.2991 76.3193 61.8179 93.8855 47.2773 93.8855C40.0079 93.8855 38.4931 90.3559 38.4931 80.2569V18.3226ZM280.518 158.978L280.529 0L245.093 0.00362552V7.92612C246.446 7.92659 247.787 8.19395 249.037 8.71289C250.288 9.23183 251.423 9.99217 252.379 10.9504C253.335 11.9086 254.093 13.0459 254.609 14.2972C255.125 15.5485 255.389 16.8893 255.386 18.2428V68.7468C249.726 61.6768 240.951 58.4501 231.759 58.4501C211.264 58.4501 192.378 76.517 192.378 122.654C192.378 155.058 207.325 178.983 230.85 178.983C239.701 178.983 247.946 177.148 254.174 169.595V177.015H290.833V169.292C289.478 169.293 288.137 169.027 286.885 168.509C285.633 167.991 284.495 167.231 283.537 166.273C282.579 165.315 281.819 164.177 281.301 162.926C280.783 161.674 280.517 160.332 280.518 158.978ZM254.779 140.222C254.779 154.958 249.327 163.844 237.814 163.844C223.17 163.844 218.426 143.751 218.426 121.141C218.426 100.139 224.077 75.1077 239.327 75.1077C251.107 75.1077 254.777 86.1498 254.777 101.059L254.779 140.222Z" fill="#D1BCA7"/>
<path d="M319.604 38.7654C325.985 38.7654 331.157 31.1046 331.157 21.6544C331.157 12.2043 325.985 4.54346 319.604 4.54346C313.224 4.54346 308.052 12.2043 308.052 21.6544C308.052 31.1046 313.224 38.7654 319.604 38.7654Z" fill="#D1BCA7"/>
<path d="M333.515 158.628L333.539 60.5722H298.097V68.4458H300.521C303.957 68.4458 308.676 71.9771 308.676 79.3482V158.72C308.676 164.419 303.779 169.022 298.079 169.022L298.097 177.019H343.82L343.836 168.946C341.099 168.946 338.474 167.858 336.539 165.923C334.603 163.988 333.516 161.364 333.515 158.628ZM494.997 60.2675C486.156 60.2675 480.224 66.5903 478.027 75.7262V62.0849H442.589V69.9584H445.014C448.45 69.9584 453.169 73.488 453.169 80.8609V160.233C453.169 165.932 448.273 170.535 442.572 170.535L442.589 178.379H488.32V170.459C486.967 170.458 485.626 170.191 484.376 169.672C483.126 169.153 481.99 168.393 481.034 167.434C480.078 166.476 479.32 165.339 478.804 164.088C478.288 162.836 478.024 161.496 478.027 160.142V86.4872C478.027 84.6867 478.742 82.9599 480.016 81.6867C481.289 80.4135 483.016 79.6983 484.817 79.6983C488.565 79.6983 491.637 82.7382 491.637 86.4872V104.485H509.84V78.4395C509.84 68.4457 503.48 60.2675 494.997 60.2675Z" fill="#D1BCA7"/>
</svg>
