<svg width="732" height="342" viewBox="0 0 732 342" fill="none" xmlns="http://www.w3.org/2000/svg">
<path fill-rule="evenodd" clip-rule="evenodd" d="M257.4 339.643H267.34V299.486H288.964C310.185 299.486 324.822 286.589 323.21 268.326C321.736 246.029 305.213 240.252 283.456 240.252H257.4V339.643ZM267.34 249.119H284.665C300.378 249.119 312.469 253.281 313.271 268.326C313.811 280.413 306.957 290.618 287.888 290.618H267.34V249.119ZM332.751 289.011C332.211 320.711 358.674 340.747 383.924 341.552C409.311 342.088 437.115 322.057 437.647 291.162C437.913 261.48 414.008 238.648 384.733 238.648C353.972 238.648 333.021 264.563 332.751 289.011ZM342.691 288.475C342.425 269.131 361.357 248.044 384.999 248.044C407.026 248.044 429.053 265.908 427.707 290.892C426.096 320.441 402.457 331.452 384.733 331.722C368.75 332.258 343.227 320.973 342.691 288.475ZM536.499 326.751L512.724 240.255H503.191L479.416 326.751L454.972 240.255H444.766L473.102 339.643H485.862L507.889 258.386L529.782 339.643H542.812L571.156 240.255H560.947L536.499 326.751ZM582.7 339.643H636.966V330.78H592.639V293.978H635.484V285.115H592.639V249.389H636.966V240.255H582.7V339.643ZM654.561 339.643H664.501V249.389H684.509C698.079 249.389 712.043 257.044 712.043 272.222C712.043 286.863 699.69 295.054 682.627 294.518H674.299L708.143 339.643H720.633L692.563 302.439C710.694 302.439 723.321 286.589 721.979 271.146C720.903 258.789 716.201 240.255 681.282 240.255H654.557V339.643H654.561Z" fill="#B9A692"/>
<path fill-rule="evenodd" clip-rule="evenodd" d="M257.083 238.824H280.964V142.327H332.923C383.916 142.327 419.097 111.346 415.225 67.453C411.673 13.8786 371.973 0 319.694 0H257.083V238.824ZM280.964 21.303H322.596C360.356 21.303 389.4 31.3091 391.332 67.4569C392.631 96.5012 376.167 121.027 330.341 121.027H280.964V21.303ZM448.134 238.824H578.518V217.525H472.019V129.097H574.974V107.794H472.019V21.9484H578.518V0H448.134V238.824ZM653.72 238.824H677.605V21.303H731.817V0H598.851V21.303H653.72V238.824Z" fill="#D1BCA7"/>
<path fill-rule="evenodd" clip-rule="evenodd" d="M256.802 215.506H0C42.653 218.135 85.3099 220.474 128.256 222.809C170.909 224.851 213.855 227.19 256.802 229.53V215.506ZM256.802 188.922H0C42.653 191.555 85.3099 193.89 128.256 196.225C170.909 198.267 213.855 200.607 256.802 202.946V188.922ZM256.802 162.335H0C42.653 164.963 85.3099 167.303 128.256 169.638C170.909 171.684 213.855 174.019 256.802 176.354V162.335ZM256.802 135.751H0C42.653 138.38 85.3099 140.719 128.256 143.054C170.909 145.096 213.855 147.435 256.802 149.77V135.751ZM256.802 109.457H0C42.653 112.085 85.3099 114.424 128.256 116.76C170.909 118.806 213.855 121.145 256.802 123.48V109.457ZM256.802 82.8689H0C42.653 85.4976 85.3099 87.8368 128.256 90.172C170.909 92.2178 213.855 94.5531 256.802 96.8923V82.8689ZM256.802 56.2812H0C42.653 58.9099 85.3099 61.2491 128.256 63.5843C170.909 65.6301 213.855 67.9693 256.802 70.3046V56.2812Z" fill="#B9A692"/>
</svg>
