<svg width="755" height="166" viewBox="0 0 755 166" fill="none" xmlns="http://www.w3.org/2000/svg">
<path d="M721.753 135.793H720.08C720.08 135.793 717.291 140.802 709.482 140.802C706.694 140.802 703.347 139.689 701.116 137.463V124.663C701.116 109.081 690.518 104.073 682.152 100.177C674.343 96.2816 667.65 93.4991 667.65 82.9255C667.65 76.2475 664.861 71.239 664.303 70.126L662.072 65.1174C660.957 61.7784 660.399 58.4394 660.399 55.1004C660.399 51.7614 661.515 47.3094 663.746 42.8573C666.534 36.1793 671.554 30.6143 673.785 30.6143C675.459 30.6143 676.574 32.2838 678.805 35.6228C681.036 39.5183 684.383 44.5268 691.076 44.5268C699.443 44.5268 704.462 33.9533 704.462 24.4928C704.462 18.9277 702.789 13.3627 699.443 10.0237C695.538 5.57168 689.403 3.34566 681.594 3.34566C664.861 3.34566 655.937 12.2497 652.033 16.7017C648.686 15.5887 642.551 13.3627 634.742 13.3627C626.375 13.3627 620.24 15.0322 617.451 16.7017C614.105 12.2497 604.623 3.34566 587.89 3.34566C580.081 3.34566 573.946 5.57168 570.041 10.0237C566.695 13.9192 565.021 18.9277 565.021 24.4928V25.0493C563.906 24.4928 562.232 24.4928 561.117 24.4928C556.655 24.4928 551.635 32.2838 549.404 35.6228C547.173 38.9618 542.711 47.3094 542.711 55.6569C542.711 70.126 549.404 77.917 554.424 83.482C557.213 86.821 559.444 89.0471 559.444 91.8296C559.444 93.4991 555.539 95.7251 552.193 97.3946C544.942 101.29 534.902 106.855 534.902 119.098V130.785C534.902 136.906 529.882 141.358 524.304 141.358C519.842 141.358 517.054 137.463 517.054 137.463L515.938 135.793L514.265 136.35C510.36 136.906 502.552 140.245 502.552 148.036C502.552 157.497 514.822 163.618 525.978 163.618C534.344 163.618 539.922 161.392 542.711 160.279C544.384 161.392 547.731 162.505 551.635 162.505H687.172C691.076 162.505 694.423 160.836 696.096 160.279C698.885 161.392 703.905 163.618 712.829 163.618C725.1 163.618 735.697 156.94 735.697 148.593C734.582 139.689 726.215 136.35 721.753 135.793Z" fill="white"/>
<path d="M721.753 135.793H720.08C720.08 135.793 717.291 140.802 709.482 140.802C706.694 140.802 703.347 139.689 701.116 137.463V124.663C701.116 109.081 690.518 104.073 682.152 100.177C674.343 96.2816 667.65 93.4991 667.65 82.9255C667.65 76.2475 664.861 71.239 664.303 70.126L662.072 65.1174C660.957 61.7784 660.399 58.4394 660.399 55.1004C660.399 51.7614 661.515 47.3094 663.746 42.8573C666.534 36.1793 671.554 30.6143 673.785 30.6143C675.459 30.6143 676.574 32.2838 678.805 35.6228C681.036 39.5183 684.383 44.5268 691.076 44.5268C699.443 44.5268 704.462 33.9533 704.462 24.4928C704.462 18.9277 702.789 13.3627 699.443 10.0237C695.538 5.57167 689.403 3.34566 681.594 3.34566C664.861 3.34566 655.937 12.2497 652.033 16.7017C648.686 15.5887 642.551 13.3627 634.742 13.3627C626.375 13.3627 620.24 15.0322 617.451 16.7017C614.105 12.2497 604.623 3.34566 587.89 3.34566C580.081 3.34566 573.946 5.57167 570.041 10.0237C566.695 13.9192 565.021 18.9277 565.021 24.4928V25.0493C563.906 24.4928 562.232 24.4928 561.117 24.4928C556.655 24.4928 551.635 32.2838 549.404 35.6228C547.173 38.9618 542.711 47.3094 542.711 55.6569C542.711 70.126 549.404 77.917 554.424 83.482C557.213 86.821 559.444 89.0471 559.444 91.8296C559.444 93.4991 555.539 95.7251 552.193 97.3946C544.942 101.29 534.902 106.855 534.902 119.098V130.785C534.902 136.906 529.882 141.358 524.304 141.358C519.842 141.358 517.054 137.463 517.054 137.463L515.938 135.793L514.265 136.35C510.36 136.906 502.552 140.245 502.552 148.036C502.552 157.497 514.822 163.618 525.978 163.618C534.344 163.618 539.922 161.392 542.711 160.279C544.384 161.392 547.731 162.505 551.635 162.505H687.172C691.076 162.505 694.423 160.836 696.096 160.279C698.885 161.392 703.905 163.618 712.829 163.618C725.1 163.618 735.697 156.94 735.697 148.593C734.582 139.689 726.215 136.35 721.753 135.793Z" stroke="white" stroke-width="4.41995" stroke-miterlimit="10"/>
<path d="M588.102 68.3619C588.102 68.9184 588.102 70.0314 586.986 70.5879C585.871 71.1444 585.313 71.7009 584.197 71.7009C581.966 71.7009 580.293 70.0314 580.293 67.8054V65.5793C582.524 65.0229 584.197 62.7968 584.197 60.0143C584.197 60.0143 581.966 58.9013 578.62 58.9013C575.273 58.9013 573.042 60.0143 573.042 60.0143C573.042 62.2403 574.715 64.4663 576.946 65.5793V67.8054C576.946 70.0314 575.273 71.7009 573.042 71.7009C571.927 71.7009 570.811 71.1444 570.253 70.5879C569.695 70.0314 569.138 68.9184 569.138 67.8054H565.791C565.791 70.0314 566.349 71.7009 568.022 72.8139C569.138 74.4834 571.369 75.5964 573.042 75.5964C575.273 75.5964 577.504 74.4834 578.62 72.8139C580.293 74.4834 581.966 75.5964 584.197 75.5964C586.428 75.5964 588.102 75.0399 589.217 73.3704C590.891 71.7009 592.006 70.0314 592.006 68.3619H588.102ZM590.333 50.5538C588.102 50.5538 585.871 52.2233 585.871 55.0058C585.871 57.2318 588.102 58.9013 590.333 58.9013C592.564 58.9013 594.795 57.2318 594.795 55.0058C594.795 52.2233 592.564 50.5538 590.333 50.5538ZM571.369 55.0058C571.369 52.7798 569.695 50.5538 566.907 50.5538C564.676 50.5538 562.445 52.2233 562.445 55.0058C563.002 57.2318 564.676 58.9013 567.464 58.9013C569.695 58.9013 571.369 57.2318 571.369 55.0058ZM595.353 63.9098C595.353 65.0229 596.468 65.5793 597.026 65.5793H597.584L607.066 63.9098V64.4663L604.277 68.9184L597.026 67.8054C595.91 67.8054 595.353 68.3619 594.795 69.4749C594.237 70.5879 595.353 71.1444 596.468 71.7009L602.604 72.8139C602.046 74.4834 600.93 78.3789 600.93 82.2744C600.93 85.6134 602.046 88.396 603.719 91.1785C605.392 94.5175 607.623 98.413 607.623 104.535C607.623 107.874 605.392 114.552 603.719 121.23C599.257 136.255 597.584 142.933 602.046 144.603C607.066 146.829 604.277 155.733 604.277 156.289H592.006C592.564 152.95 593.679 145.716 588.102 141.82H586.986L592.006 122.343C592.564 120.673 591.448 119.56 590.333 119.004C588.659 118.447 587.544 119.56 586.986 120.673L583.64 133.473L580.293 120.673C579.735 119.56 578.62 118.447 576.946 119.004C576.389 119.56 575.273 120.673 575.831 122.343L579.735 137.925C579.735 138.481 580.851 143.49 584.755 145.716C588.659 148.498 586.428 156.289 586.428 156.289H573.6C574.158 153.507 574.715 147.385 571.927 143.49C570.811 142.377 569.695 141.264 568.022 140.707L563.002 120.673C562.445 119.56 561.329 118.447 559.656 119.004C558.54 119.56 557.425 120.673 557.982 122.343L562.445 140.151C558.54 139.594 557.982 137.925 557.425 137.925V136.255C557.982 135.142 557.425 133.473 555.751 132.916C554.636 132.36 552.963 132.916 552.405 134.586C551.847 135.142 551.289 137.925 552.405 140.151C554.078 143.49 557.982 145.159 564.676 145.716C565.791 145.716 566.349 146.272 566.907 146.829C568.58 149.055 568.022 154.62 567.464 156.846H549.616C545.712 156.846 542.923 154.62 542.923 154.62L541.249 153.507L539.576 154.62C539.576 154.62 533.999 157.959 524.517 157.959C516.15 157.959 507.226 152.95 507.226 148.498C507.226 145.159 510.572 144.046 512.246 143.49C513.919 145.716 517.823 148.498 523.401 148.498C532.883 148.498 540.134 140.707 540.134 131.803V119.004C540.134 110.656 547.385 106.761 554.078 102.865C559.656 100.083 564.676 96.7435 564.676 91.735C564.676 86.7264 561.329 82.8309 557.982 78.9354C556.309 77.2659 554.636 75.5964 553.52 73.3704L560.213 72.2574C561.329 72.2574 561.887 71.1444 561.887 70.0314C561.887 68.9184 560.771 68.3619 559.656 68.3619L551.289 70.0314C550.174 68.3619 549.616 66.6924 549.058 64.4663L559.656 66.1359H560.213C561.329 66.1359 561.887 65.5794 561.887 64.4663C561.887 63.3533 561.329 62.7968 560.213 62.2403L547.943 60.5708C547.385 58.9013 547.385 56.6753 547.385 55.0058C547.385 44.9888 556.867 31.6327 560.213 29.9632C563.56 29.4067 568.022 36.6412 570.811 42.7627L571.927 45.5453L574.715 44.9888C577.504 44.4323 580.293 44.4323 582.524 44.9888L585.313 46.1018L586.428 43.3193C588.659 36.6412 593.122 29.4067 595.91 29.4067C598.699 31.0762 608.739 44.4323 608.739 54.4493C608.739 56.1188 608.739 58.3448 608.181 60.0143L597.026 62.2403C595.91 62.2403 595.353 62.7968 595.353 63.9098Z" fill="#27ADEA"/>
<path d="M588.102 68.3619C588.102 68.9184 588.102 70.0314 586.986 70.5879C585.871 71.1444 585.313 71.7009 584.197 71.7009C581.966 71.7009 580.293 70.0314 580.293 67.8054V65.5794C582.524 65.0229 584.197 62.7969 584.197 60.0143C584.197 60.0143 581.966 58.9013 578.62 58.9013C575.273 58.9013 573.042 60.0143 573.042 60.0143C573.042 62.2404 574.715 64.4664 576.946 65.5794V67.8054C576.946 70.0314 575.273 71.7009 573.042 71.7009C571.926 71.7009 570.811 71.1444 570.253 70.5879C569.695 70.0314 569.138 68.9184 569.138 67.8054H565.791C565.791 70.0314 566.349 71.7009 568.022 72.8139C569.138 74.4834 571.369 75.5964 573.042 75.5964C575.273 75.5964 577.504 74.4834 578.62 72.8139C580.293 74.4834 581.966 75.5964 584.197 75.5964C586.428 75.5964 588.102 75.0399 589.217 73.3704C590.89 71.7009 592.006 70.0314 592.006 68.3619H588.102" stroke="#27ADEA" stroke-width="8.8584" stroke-miterlimit="10"/>
<path d="M590.082 50.7096C587.851 50.7096 585.619 52.3791 585.619 55.1616C585.619 57.3876 587.851 59.6136 590.082 59.6136C592.313 59.6136 594.544 57.3876 594.544 54.6051C594.544 52.3791 592.87 50.1531 590.082 50.7096V50.7096Z" stroke="#27ADEA" stroke-width="8.8584" stroke-miterlimit="10"/>
<path d="M571.351 55.0058C571.351 52.7798 569.678 50.5538 566.889 50.5538C564.658 50.5538 562.427 52.2233 562.427 55.0058C562.427 57.2318 564.658 59.4578 566.889 59.4578C569.678 58.9013 571.351 57.2318 571.351 55.0058V55.0058Z" stroke="#27ADEA" stroke-width="8.8584" stroke-miterlimit="10"/>
<path d="M595.157 64.2771C595.157 65.3901 596.273 65.9466 596.83 65.9466H597.388L606.87 64.2771V64.8336L604.639 69.2856L597.388 68.1726C596.273 68.1726 595.715 68.7291 595.157 69.8421C595.157 70.9551 595.715 71.5116 596.83 72.0682L602.966 73.1812C601.85 75.4072 600.735 79.3027 600.735 83.1982C600.735 86.5372 601.85 89.3197 603.524 92.1022C605.755 94.8847 607.428 98.2238 607.428 104.902C607.428 108.241 605.197 114.919 603.524 121.597C599.062 136.622 597.388 143.3 601.85 144.97C606.87 147.196 604.081 156.1 604.081 156.657H591.811C592.368 153.318 593.484 146.083 587.906 142.187L587.348 141.631L592.368 122.153C592.926 121.04 591.811 119.371 590.695 118.814C589.58 118.258 587.906 119.371 587.348 120.484L584.002 133.283L580.655 120.484C580.098 119.371 578.982 118.258 577.309 118.814C576.193 119.371 575.078 120.484 575.635 122.153L579.54 137.735C579.54 138.292 580.655 143.3 584.56 145.526C588.464 148.309 586.233 156.1 586.233 156.1H573.962C574.52 153.318 575.078 147.196 572.289 143.3C571.173 142.187 570.058 141.074 568.384 140.518L563.365 120.484C562.807 119.371 561.691 118.258 560.018 118.814C558.902 119.371 557.787 120.484 558.345 122.153L562.807 139.961C558.902 139.405 558.345 137.735 557.787 137.735V136.066C558.345 134.953 557.787 133.283 556.114 132.727C554.998 132.17 553.325 132.727 552.767 134.396C552.209 134.953 551.652 137.735 552.767 139.961C554.44 143.3 558.345 144.97 565.038 145.526C566.153 145.526 566.711 146.083 567.269 146.639C568.942 148.865 568.384 154.431 567.827 156.657H549.978C546.074 156.657 543.285 154.431 543.285 154.431L541.612 153.318L539.938 154.431C539.938 154.431 534.361 157.77 524.879 157.77C516.512 157.77 507.588 152.761 507.588 148.309C507.588 144.97 510.935 143.857 512.608 143.3C514.281 145.526 518.186 148.309 523.763 148.309C533.245 148.309 540.496 140.518 540.496 131.614V118.814C540.496 110.467 547.747 106.571 554.44 102.676C560.018 99.8933 565.038 96.5543 565.038 91.5457C565.038 86.5372 561.691 82.6417 558.345 78.7462C556.671 77.0767 554.998 75.4072 553.883 73.1812L560.576 72.0682C561.691 72.0682 562.249 70.9551 562.249 69.8421C562.249 68.7291 561.134 68.1726 560.018 68.1726L551.652 69.8421C551.094 67.6161 550.536 65.9466 549.42 63.7206L560.576 65.3901H561.134C562.249 65.3901 562.807 64.8336 562.807 63.7206C562.807 62.6076 562.249 62.0511 561.134 61.4946L548.863 59.8251C548.305 58.1556 548.305 55.9296 548.305 54.2601C548.305 44.243 557.787 30.887 561.134 29.2175C563.922 29.774 568.384 36.452 570.616 42.5735L571.731 45.356L574.52 44.7995C577.309 44.243 580.098 44.243 582.329 44.7995L585.117 45.356L586.233 42.5735C588.464 36.452 592.926 29.774 595.715 29.2175C598.504 30.887 608.544 44.243 608.544 54.2601C608.544 55.9296 608.544 58.1556 607.986 59.8251L596.83 62.0511C595.715 62.0511 595.157 63.1641 595.157 64.2771V64.2771Z" stroke="#27ADEA" stroke-width="8.8584" stroke-miterlimit="10"/>
<path d="M588.102 68.3619C588.102 68.9184 588.102 70.0314 586.986 70.5879C585.871 71.1444 585.313 71.7009 584.198 71.7009C581.966 71.7009 580.293 70.0314 580.293 67.8054V65.5794C582.524 65.0229 584.198 62.7968 584.198 60.0143C584.198 60.0143 581.966 58.9013 578.62 58.9013C575.273 58.9013 573.042 60.0143 573.042 60.0143C573.042 62.2403 574.715 64.4664 576.947 65.5794V67.8054C576.947 70.0314 575.273 71.7009 573.042 71.7009C571.927 71.7009 570.811 71.1444 570.253 70.5879C569.696 70.0314 569.138 68.9184 569.138 67.8054H565.791C565.791 70.0314 566.349 71.7009 568.022 72.8139C569.138 74.4834 571.369 75.5964 573.042 75.5964C575.273 75.5964 577.504 74.4834 578.62 72.8139C580.293 74.4834 581.966 75.5964 584.198 75.5964C586.429 75.5964 588.102 75.0399 589.217 73.3704C590.891 71.7009 592.006 70.0314 592.006 68.3619H588.102ZM590.333 50.5538C588.102 50.5538 585.871 52.2233 585.871 55.0058C585.871 57.2318 588.102 58.9013 590.333 58.9013C592.564 58.9013 594.795 57.2318 594.795 55.0058C594.795 52.2233 592.564 50.5538 590.333 50.5538ZM571.369 55.0058C571.369 52.7798 569.696 50.5538 566.907 50.5538C564.676 50.5538 562.445 52.2233 562.445 55.0058C563.002 57.2318 564.676 58.9013 567.465 58.9013C569.696 58.9013 571.369 57.2318 571.369 55.0058ZM641.647 55.0058C641.647 52.7798 643.321 50.5538 646.109 50.5538C648.34 50.5538 650.572 52.2233 650.572 55.0058C650.572 57.2318 648.34 58.9013 646.109 58.9013C643.878 58.9013 641.647 57.2318 641.647 55.0058ZM618.779 55.0058C618.779 52.7798 620.452 50.5538 623.241 50.5538C625.472 50.5538 627.703 52.2233 627.703 55.0058C627.145 57.2318 625.472 58.9013 623.241 58.9013C620.452 58.9013 618.779 57.2318 618.779 55.0058ZM698.539 23.2852C698.539 31.0762 694.635 37.7542 691.288 37.7542C687.942 37.7542 686.826 35.5282 684.595 31.6327C682.364 28.2937 680.133 23.8417 674.555 23.8417C666.189 23.8417 659.496 38.8672 658.938 39.9802C657.265 43.8758 655.034 49.4408 655.034 54.4493C655.034 58.9013 655.591 62.7969 657.265 66.6924L660.054 72.2574C660.054 72.2574 662.842 76.7094 662.842 82.2744C662.285 88.396 656.707 93.4045 650.572 93.4045C642.763 93.4045 637.185 87.8395 637.185 81.1614V76.7094C642.205 75.5964 645.552 71.1444 645.552 66.1359C645.552 66.1359 641.09 63.9099 634.396 63.9099C628.261 63.9099 623.241 66.1359 623.241 66.1359C623.241 71.1444 626.588 75.5964 631.608 76.7094V81.1614C631.608 87.8395 626.03 93.961 618.779 93.961C612.086 93.961 607.066 88.9525 605.95 82.8309C605.95 77.2659 608.739 72.8139 608.739 72.8139L611.528 67.2489C613.201 63.3534 613.759 58.9013 613.759 55.0058C613.759 46.6583 608.739 38.3107 607.066 34.9717C604.835 31.6327 599.815 23.8417 595.353 23.8417H594.795C589.775 23.8417 586.986 27.7372 585.313 31.6327C584.198 32.7457 583.64 34.4152 583.082 35.5282C581.409 36.6412 580.293 37.7542 578.062 37.7542C574.715 37.7542 570.811 31.0762 570.811 23.8417C570.811 21.0592 571.369 16.6072 574.715 13.2681C577.504 9.92913 581.966 8.2596 588.102 8.2596C605.95 8.2596 613.759 19.9462 613.759 20.5027L614.875 23.2852L617.663 21.6157C617.663 21.6157 624.357 18.2767 634.396 18.2767C644.994 18.2767 651.129 21.6157 651.129 21.6157L653.918 23.2852L655.591 20.5027C655.591 20.5027 663.4 8.2596 681.249 8.2596C687.384 8.2596 691.846 9.92911 694.635 12.7116C697.424 16.0506 698.539 20.5027 698.539 23.2852ZM734.794 148.498C734.794 156.846 724.754 163.524 711.926 163.524C703.001 163.524 697.424 161.298 695.193 160.185C693.519 161.298 690.173 162.411 686.268 162.411H550.732C546.827 162.411 543.481 161.298 541.807 160.185C539.019 161.298 533.441 163.524 525.074 163.524C513.919 163.524 501.648 156.846 501.648 147.942C501.648 140.151 509.457 136.812 513.361 136.255L515.035 135.699L516.15 137.368C516.15 137.368 518.939 141.264 523.401 141.264C529.537 141.264 533.999 136.255 533.999 130.69V117.891C533.999 105.648 544.038 100.083 551.289 96.187C555.194 94.5175 559.098 92.2915 559.098 90.622C559.098 87.8395 556.867 85.6134 554.078 82.2744C549.058 76.7094 542.365 68.9184 542.365 54.4493C542.365 46.1018 546.827 37.7542 549.058 34.4152C551.289 31.0762 556.309 23.2852 560.771 23.2852C562.445 23.2852 563.56 23.8417 564.676 23.8417V23.2852C564.676 17.7201 566.349 12.1551 569.696 8.81612C573.6 4.36409 579.735 2.13808 587.544 2.13808C604.277 2.13808 613.201 11.0421 617.106 15.4941C620.452 14.3811 626.588 12.7116 634.396 12.1551C642.763 12.1551 648.898 13.8246 651.687 15.4941C655.034 11.0421 664.516 2.13808 681.249 2.13808C689.057 2.13808 695.193 4.36409 699.097 8.81612C702.444 12.7116 704.117 17.7201 704.117 23.2852C704.117 33.3022 698.539 43.3193 690.731 43.3193C684.037 43.3193 680.691 38.3107 678.46 34.4152C676.229 31.0762 675.113 29.4067 673.44 29.4067C671.209 29.4067 666.747 34.9717 663.4 41.6498C661.169 46.1018 660.054 50.5538 660.054 53.8928C660.054 57.2318 660.611 60.5708 661.727 63.9099L665.073 69.4749C665.631 70.5879 668.42 75.5964 668.42 82.2744C668.42 92.2915 674.555 95.6305 682.922 99.526C691.288 103.422 701.328 108.43 701.886 124.012V136.812C704.117 139.038 707.464 140.151 710.252 140.151C717.503 140.151 720.85 135.142 720.85 135.142H722.523C726.428 136.255 734.794 139.594 734.794 148.498ZM712.483 157.402C701.886 157.402 697.424 154.063 697.424 154.063L695.75 152.394L694.077 154.063C694.077 154.063 691.288 156.289 687.384 156.289H665.073C665.073 156.289 660.611 150.724 662.842 146.829C665.631 141.264 671.209 140.151 678.46 140.151C681.806 140.151 683.48 138.481 684.037 137.368C685.711 134.029 682.922 128.464 681.806 127.351C680.133 125.682 678.46 125.682 677.344 126.238C676.229 126.795 675.671 128.464 676.786 129.577C677.902 131.247 679.018 133.473 679.018 134.586H677.902C676.229 134.586 673.44 134.586 671.209 135.142L669.536 129.021C668.978 127.908 667.862 126.795 666.189 127.351C665.073 127.908 663.958 129.021 664.516 130.69L666.189 136.812C662.842 137.925 660.054 140.707 657.822 144.603C655.591 149.055 657.265 153.507 658.938 156.289H638.301C637.743 151.837 637.185 145.159 640.532 143.49C641.647 142.933 642.763 142.933 643.321 142.377C645.552 141.82 647.783 141.264 648.898 139.038C650.014 136.812 650.014 134.029 648.34 130.134L646.667 120.673C646.109 119.56 644.994 118.447 643.321 119.004C642.205 119.56 641.09 120.673 641.647 122.343L643.878 132.36C644.994 136.255 644.994 137.368 644.994 137.368C644.994 137.368 643.321 137.925 642.763 137.925C641.647 137.925 640.532 138.481 638.858 139.038C637.185 139.594 635.512 141.264 634.954 142.377C633.839 140.707 632.723 139.594 631.05 139.038C629.376 138.481 628.261 137.925 627.145 137.925C626.588 137.925 624.914 137.368 624.914 137.368C624.914 137.368 624.357 136.255 626.03 132.36L628.261 122.343C628.261 120.673 627.145 119.56 626.03 119.004C624.914 118.447 623.241 119.56 622.683 120.673L620.452 130.69C618.779 135.142 618.779 137.925 619.894 140.151C621.01 142.377 623.241 142.933 625.472 143.49C626.588 143.49 627.703 144.046 628.261 144.603C631.05 145.716 631.05 152.394 630.492 157.402H609.855C610.97 152.394 611.528 144.603 604.835 140.707C604.835 137.925 607.066 129.577 608.739 124.012C611.528 115.665 613.201 108.987 613.201 104.535C613.201 101.752 612.644 98.9695 612.086 97.3C614.875 98.413 617.106 98.413 619.337 98.413C621.01 98.413 622.683 98.413 624.357 97.8565C627.145 100.639 630.492 101.752 634.396 101.752C638.301 101.752 641.647 100.083 644.436 97.8565C646.109 98.413 647.783 98.413 649.456 98.413C655.591 98.413 660.611 95.6305 663.958 91.1785C667.304 98.413 673.998 101.752 680.133 104.535C688.5 108.43 695.193 111.769 695.193 123.456V139.038L695.75 140.151C699.655 144.046 704.675 146.272 709.137 146.272C715.272 146.272 719.734 143.49 721.965 141.82C724.196 142.377 728.101 144.046 728.101 147.942C728.659 152.95 720.85 157.402 712.483 157.402ZM629.376 95.6305C631.05 96.7435 632.723 97.3 634.396 97.3C636.07 97.3 637.743 96.7435 639.416 95.6305C637.743 93.961 636.07 92.2915 634.954 90.0655C633.281 92.2915 631.608 93.961 629.376 95.6305ZM595.353 63.9099C595.353 65.0229 596.468 65.5794 597.026 65.5794H597.584L607.066 63.9099V64.4664L604.277 68.9184L597.026 67.8054C595.911 67.8054 595.353 68.3619 594.795 69.4749C594.237 70.5879 595.353 71.1444 596.468 71.7009L602.604 72.8139C602.046 74.4834 600.93 78.3789 600.93 82.2744C600.93 85.6134 602.046 88.396 603.719 91.1785C605.393 94.5175 607.624 98.413 607.624 104.535C607.624 107.874 605.393 114.552 603.719 121.23C599.257 136.255 597.584 142.933 602.046 144.603C607.066 146.829 604.277 155.733 604.277 156.289H592.006C592.564 152.95 593.68 145.716 588.102 141.82H586.986L592.006 122.343C592.564 120.673 591.448 119.56 590.333 119.004C588.66 118.447 587.544 119.56 586.986 120.673L583.64 133.473L580.293 120.673C579.735 119.56 578.62 118.447 576.947 119.004C576.389 119.56 575.273 120.673 575.831 122.343L579.735 137.925C579.735 138.481 580.851 143.49 584.755 145.716C588.66 148.498 586.429 156.289 586.429 156.289H573.6C574.158 153.507 574.715 147.385 571.927 143.49C570.811 142.377 569.696 141.264 568.022 140.707L563.002 120.673C562.445 119.56 561.329 118.447 559.656 119.004C558.54 119.56 557.425 120.673 557.983 122.343L562.445 140.151C558.54 139.594 557.983 137.925 557.425 137.925V136.255C557.983 135.142 557.425 133.473 555.751 132.916C554.636 132.36 552.963 132.916 552.405 134.586C551.847 135.142 551.289 137.925 552.405 140.151C554.078 143.49 557.983 145.159 564.676 145.716C565.791 145.716 566.349 146.272 566.907 146.829C568.58 149.055 568.022 154.62 567.465 156.846H549.616C545.712 156.846 542.923 154.62 542.923 154.62L541.25 153.507L539.576 154.62C539.576 154.62 533.999 157.959 524.517 157.959C516.15 157.959 507.226 152.95 507.226 148.498C507.226 145.159 510.573 144.046 512.246 143.49C513.919 145.716 517.823 148.498 523.401 148.498C532.883 148.498 540.134 140.707 540.134 131.803V119.004C540.134 110.656 547.385 106.761 554.078 102.865C559.656 100.083 564.676 96.7435 564.676 91.735C564.676 86.7265 561.329 82.8309 557.983 78.9354C556.309 77.2659 554.636 75.5964 553.52 73.3704L560.214 72.2574C561.329 72.2574 561.887 71.1444 561.887 70.0314C561.887 68.9184 560.771 68.3619 559.656 68.3619L551.289 70.0314C550.174 68.3619 549.616 66.6924 549.058 64.4664L559.656 66.1359H560.214C561.329 66.1359 561.887 65.5794 561.887 64.4664C561.887 63.3534 561.329 62.7968 560.214 62.2403L547.943 60.5708C547.385 58.9013 547.385 56.6753 547.385 55.0058C547.385 44.9888 556.867 31.6327 560.214 29.9632C563.56 29.4067 568.022 36.6412 570.811 42.7628L571.927 45.5453L574.715 44.9888C577.504 44.4323 580.293 44.4323 582.524 44.9888L585.313 46.1018L586.429 43.3193C588.66 36.6412 593.122 29.4067 595.911 29.4067C598.699 31.0762 608.739 44.4323 608.739 54.4493C608.739 56.1188 608.739 58.3448 608.181 60.0143L597.026 62.2403C595.911 62.2403 595.353 62.7969 595.353 63.9099Z" fill="#B9A692"/>
<path d="M472.427 78.045C472.427 62.4629 461.271 49.1069 445.654 49.1069C428.921 49.1069 418.881 61.9064 418.881 76.932V77.4885C418.881 92.5141 430.037 105.87 445.654 105.87C462.945 105.87 472.427 93.0706 472.427 78.045ZM390.435 78.045C390.435 47.9939 414.419 24.0643 446.212 24.0643C478.004 24.0643 501.43 47.4374 501.43 76.932V77.4885C501.43 106.983 477.447 130.913 445.654 130.913C413.861 130.913 390.435 106.983 390.435 78.045ZM288.364 78.045C288.364 48.5504 310.675 24.0643 342.468 24.0643C352.507 24.0643 360.316 25.7338 367.009 29.0728C379.28 34.6378 387.089 46.8809 376.491 56.8979C372.029 61.3499 367.567 61.3499 367.567 61.3499C363.663 55.7849 358.643 48.5504 342.468 48.5504C327.966 48.5504 317.368 62.4629 317.368 77.4885C317.368 93.0706 327.408 105.87 343.583 105.87C353.065 105.87 365.336 101.975 372.587 93.0706L387.089 111.435C377.049 122.565 362.547 130.913 342.468 130.913C311.233 130.913 288.364 106.983 288.364 78.045ZM227.568 90.8446V50.7764H215.297V25.7338H227.568V2.36068H256.572V25.7338H278.325V50.7764H256.572V89.7316C256.572 96.4096 261.592 103.644 269.4 103.644C274.978 103.644 276.094 103.644 279.998 103.088V128.13C274.978 129.243 272.189 129.243 267.169 129.243C247.648 129.243 227.568 118.67 227.568 90.8446ZM180.158 63.0194C179.042 54.1154 173.465 46.3244 162.867 46.3244C153.385 46.3244 143.346 53.5589 142.23 63.0194H180.158ZM112.111 78.045C112.111 48.5504 132.748 24.0643 162.867 24.0643C197.449 24.0643 207.488 50.7764 207.488 67.4715C207.488 82.497 188.524 83.61 182.947 83.61H141.114C143.903 96.9661 153.385 106.427 166.214 106.427C176.254 106.427 187.967 101.418 195.775 93.6271L208.046 113.661C196.891 124.791 182.947 130.913 165.656 130.913C134.421 130.913 112.111 109.209 112.111 78.045ZM72.5094 78.6015C72.5094 61.3499 63.5852 49.1069 49.6411 49.1069C35.6969 49.1069 26.7727 61.3499 26.7727 78.6015C26.7727 95.8531 37.3702 106.983 49.6411 106.983C61.9119 106.427 72.5094 95.2966 72.5094 78.6015ZM100.955 76.932C100.955 103.088 87.0113 130.356 55.2187 130.356C39.6013 130.356 34.5814 125.904 27.8882 119.783V144.825C27.8882 165.416 0 163.19 0 163.19V25.7338H25.6572V37.4203C32.9081 27.9598 44.0634 24.0643 59.1231 24.0643C85.338 24.0643 100.955 50.7764 100.955 76.932Z" fill="#D1BCA7"/>
<path d="M750.938 137.186C748.133 134.388 745.329 132.989 742.524 134.388C736.915 135.787 731.305 139.985 724.293 137.186C711.672 132.989 721.489 114.799 713.074 106.404C706.063 99.4082 694.844 105.005 687.832 96.6099C682.223 92.4123 682.223 85.4164 683.625 78.4205C683.625 70.0254 676.613 67.2271 675.211 60.2311C673.808 47.6385 678.016 36.445 686.43 29.4491C690.637 33.6467 693.441 39.2434 696.246 43.4409H711.672C717.282 35.0458 721.489 25.2516 718.684 14.0581C717.282 11.2597 714.477 7.0622 711.672 5.66302C703.258 -1.33289 690.637 -1.33291 680.82 2.86463C675.211 5.663 669.601 9.86056 663.992 14.0581C654.175 11.2597 641.554 11.2597 631.738 14.0581C624.726 5.663 614.909 1.46546 605.093 1.46546C595.276 1.46546 585.46 5.663 581.253 14.0581C579.851 16.8565 581.253 19.6548 578.448 21.054C564.425 28.0499 557.413 43.4409 558.815 60.2311H554.608C551.803 60.2311 550.401 60.2311 550.401 61.6303C550.401 63.0295 551.803 64.4287 551.803 64.4287H557.413V65.8279V68.6262H550.401C548.999 68.6262 548.999 70.0254 548.999 71.4246C548.999 72.8238 550.401 74.223 550.401 74.223H558.815C560.218 77.0213 563.022 78.4205 565.827 81.2189C568.632 84.0172 571.436 85.4164 574.241 88.2148C574.241 89.614 574.241 92.4123 572.839 93.8115C565.827 96.6099 558.815 98.0091 553.206 103.606C547.596 107.803 546.194 114.799 546.194 120.396V135.787C546.194 135.787 546.194 137.186 544.792 137.186L543.389 138.585H520.952V131.589C520.952 125.993 516.744 121.795 511.135 121.795C505.526 121.795 501.319 125.993 501.319 131.589V139.985C501.319 141.384 501.319 148.38 506.928 153.976C512.537 159.573 518.147 159.573 519.549 159.573H543.389C546.194 159.573 547.596 158.174 550.401 156.775C551.803 158.174 553.206 159.573 556.01 159.573H581.253C585.46 159.573 588.265 159.573 591.069 156.775C592.472 158.174 593.874 159.573 596.679 160.972C599.484 162.371 602.288 160.972 605.093 159.573C606.495 159.573 606.495 156.775 607.898 156.775C609.3 159.573 612.105 160.972 616.312 160.972C620.519 160.972 623.324 158.174 624.726 156.775C626.128 158.174 628.933 159.573 630.335 160.972C635.945 162.371 641.554 160.972 645.761 156.775C647.164 158.174 648.566 159.573 651.371 159.573C656.98 160.972 662.59 159.573 666.797 155.376C668.199 158.174 669.601 159.573 672.406 159.573H706.063C708.867 159.573 711.672 158.174 714.477 155.376C720.086 159.573 728.5 160.972 735.512 160.972C742.524 159.573 752.34 155.376 753.743 146.98C755.145 142.783 753.743 138.585 750.938 137.186Z" fill="#B9A692"/>
<path d="M609.869 54.3568C609.869 57.1551 608.466 58.5543 605.662 58.5543C602.857 58.5543 601.455 57.1551 601.455 54.3568C601.455 51.5584 602.857 50.1592 605.662 50.1592C608.466 50.1592 609.869 51.5584 609.869 54.3568ZM587.431 54.3568C587.431 57.1551 586.029 58.5543 583.224 58.5543C580.419 58.5543 579.017 57.1551 579.017 54.3568C579.017 51.5584 580.419 50.1592 583.224 50.1592C584.626 50.1592 587.431 51.5584 587.431 54.3568ZM595.845 75.3445C595.845 76.7437 594.443 76.7437 594.443 76.7437C593.041 78.1429 591.638 76.7437 591.638 75.3445H595.845ZM607.064 66.9494C607.064 71.147 604.259 73.9453 600.052 73.9453C597.248 73.9453 595.845 72.5462 594.443 71.147C593.041 72.5462 591.638 73.9453 588.833 73.9453C584.626 73.9453 581.822 71.147 581.822 66.9494H586.029C586.029 68.3486 587.431 71.147 590.236 71.147C591.638 71.147 594.443 69.7478 594.443 66.9494V65.5502C593.041 64.1511 591.638 62.7519 591.638 61.3527H601.455C601.455 64.1511 600.052 65.5502 598.65 65.5502V66.9494C598.65 68.3486 600.052 71.147 602.857 71.147C604.259 71.147 607.064 69.7478 607.064 66.9494C607.064 66.9494 602.857 66.9494 607.064 66.9494ZM567.798 124.316C564.993 124.316 563.591 122.917 563.591 120.118C563.591 117.32 564.993 115.921 567.798 115.921C567.798 115.921 570.603 115.921 573.408 117.32C580.419 118.719 577.615 129.913 579.017 136.909C581.822 136.909 584.626 136.909 587.431 138.308V120.118C586.029 117.32 588.833 115.921 591.638 115.921C594.443 115.921 595.845 117.32 595.845 120.118V148.102C595.845 150.9 597.248 152.3 600.052 152.3C602.857 152.3 604.259 150.9 604.259 148.102V120.118C604.259 117.32 605.662 115.921 608.466 115.921C611.271 115.921 612.674 117.32 612.674 120.118V148.102C612.674 150.9 614.076 152.3 616.881 152.3C619.685 152.3 621.088 150.9 621.088 148.102V120.118C621.088 114.522 623.892 111.723 625.295 107.526C626.697 103.328 625.295 97.7314 623.892 96.3323C614.076 89.3364 611.271 85.1388 614.076 76.7437C614.076 75.3445 615.478 73.9453 615.478 72.5462H612.674C611.271 72.5462 609.869 71.147 609.869 69.7478C609.869 68.3486 611.271 66.9494 612.674 66.9494H619.685C619.685 65.5502 621.088 64.1511 621.088 62.7519H612.674C611.271 62.7519 609.869 61.3527 609.869 61.3527C609.869 59.9535 611.271 59.9535 612.674 59.9535H622.49C623.892 48.7601 619.685 37.5666 611.271 30.5707C604.259 34.7682 601.455 41.7641 600.052 44.5625C595.845 43.1633 590.236 43.1633 586.029 44.5625C584.626 38.9658 580.419 33.369 574.81 30.5707C566.396 37.5666 562.189 48.7601 563.591 59.9535H572.005C574.81 59.9535 576.212 61.3527 576.212 61.3527C576.212 62.7519 574.81 62.7519 573.408 62.7519H566.396C566.396 64.1511 567.798 65.5502 567.798 66.9494H573.408C574.81 66.9494 576.212 68.3486 576.212 69.7478C576.212 71.147 573.408 72.5462 573.408 72.5462H570.603C573.408 75.3445 577.615 78.1429 580.419 80.9413C584.626 83.7396 584.626 87.9372 583.224 92.1347C580.419 99.1306 573.408 100.53 567.798 101.929C549.567 108.925 559.384 129.913 556.579 145.304V148.102C556.579 150.9 557.982 152.3 560.786 152.3H583.224C586.029 152.3 587.431 150.9 587.431 148.102C587.431 145.304 586.029 143.904 583.224 143.904H574.81C572.005 143.904 570.603 142.505 570.603 139.707C570.603 139.707 570.603 128.513 569.2 125.715C569.2 124.316 567.798 124.316 567.798 124.316ZM517.313 143.904C518.716 145.304 521.52 145.304 521.52 145.304H545.36C546.763 145.304 549.567 146.703 549.567 149.501C549.567 150.9 548.165 153.699 545.36 153.699H521.52C521.52 153.699 517.313 153.699 513.106 150.9C508.899 145.304 508.899 139.707 508.899 139.707V131.312C508.899 129.913 510.301 127.114 513.106 127.114C514.508 127.114 517.313 128.513 517.313 131.312V139.707C515.911 139.707 515.911 142.505 517.313 143.904Z" fill="#D1BCA7"/>
<path d="M709.472 147.039C709.472 148.439 708.07 152.636 705.265 152.636H674.413C671.609 152.636 670.206 151.237 670.206 148.439C670.206 145.64 671.609 144.241 674.413 144.241H688.437C691.242 142.842 691.242 141.443 692.644 138.644V116.257C692.644 112.06 696.851 107.862 701.058 107.862C705.265 107.862 709.472 112.06 709.472 116.257V147.039ZM628.136 147.039V123.253C630.94 114.858 637.952 107.862 633.745 98.068C635.147 98.068 636.55 98.068 637.952 96.6688C640.757 100.866 646.366 103.665 651.976 102.266C656.183 100.866 658.987 99.4672 661.792 96.6688C667.402 98.068 674.413 96.6688 678.62 92.4713C680.023 98.068 684.23 102.266 688.437 103.665C687.034 105.064 685.632 106.463 685.632 107.862C682.827 116.257 685.632 131.648 682.827 134.447C680.023 137.245 670.206 135.846 670.206 135.846V119.056C670.206 116.257 668.804 114.858 665.999 114.858C663.194 114.858 661.792 116.257 661.792 119.056V145.64C661.792 149.838 658.987 152.636 656.183 152.636C651.976 152.636 649.171 149.838 649.171 147.039V120.455C649.171 117.657 647.769 116.257 644.964 116.257C642.159 116.257 640.757 117.657 640.757 120.455V147.039C640.757 151.237 637.952 154.035 635.147 154.035C630.94 152.636 628.136 149.838 628.136 147.039ZM664.597 53.2942C664.597 56.0925 663.194 57.4917 660.39 57.4917C657.585 57.4917 656.183 56.0925 656.183 53.2942C656.183 50.4958 657.585 49.0966 660.39 49.0966C661.792 49.0966 664.597 51.895 664.597 53.2942ZM642.159 53.2942C642.159 56.0925 640.757 57.4917 637.952 57.4917C635.147 57.4917 632.343 56.0925 632.343 53.2942C632.343 50.4958 633.745 49.0966 636.55 49.0966C639.354 49.0966 642.159 51.895 642.159 53.2942ZM706.667 14.1171C703.863 11.3187 701.058 9.91949 696.851 8.52032C684.23 7.12114 673.011 12.7179 665.999 22.5121C654.78 16.9154 639.354 16.9154 628.136 22.5121C621.124 11.3187 609.905 5.72195 597.284 8.52032C593.077 11.3187 588.87 14.1171 587.467 18.3146C584.663 23.9113 587.467 30.9072 591.674 36.504H597.284C600.088 30.9072 604.296 22.5121 611.307 21.113C625.331 29.508 632.343 44.8991 630.94 60.2901C630.94 68.6852 621.124 72.8827 622.526 82.677C622.526 85.4753 625.331 88.2737 626.733 89.6729C630.94 92.4713 636.55 91.0721 640.757 88.2737C644.964 85.4753 646.366 78.4794 644.964 74.2819H640.757C637.952 74.2819 636.55 72.8827 636.55 70.0843C636.55 67.286 637.952 65.8868 640.757 65.8868H656.183C658.987 65.8868 660.39 67.286 660.39 70.0843C660.39 72.8827 658.987 74.2819 656.183 74.2819H651.976C650.573 79.8786 651.976 84.0762 656.183 88.2737C658.987 91.0721 664.597 92.4713 668.804 91.0721C671.609 89.6729 673.011 88.2737 674.413 85.4753C675.816 82.677 675.816 79.8786 674.413 77.0803C670.206 71.4835 665.999 67.286 665.999 60.2901C665.999 42.1007 673.011 28.1089 687.034 19.7138C692.644 22.5121 698.253 29.508 701.058 35.1048H706.667L709.472 28.1089C710.875 25.3105 710.875 18.3146 706.667 14.1171ZM649.171 95.2696C651.976 95.2696 654.78 95.2696 657.585 92.4713C651.976 93.8704 649.171 89.6729 649.171 89.6729C649.171 89.6729 646.366 93.8704 640.757 92.4713C643.561 95.2696 646.366 95.2696 649.171 95.2696ZM717.886 140.043V148.439C722.093 154.035 731.91 154.035 738.922 151.237C741.726 149.838 747.336 147.039 745.933 142.842C743.129 137.245 738.922 144.241 733.312 145.64C729.105 145.64 722.093 144.241 717.886 140.043Z" fill="#D1BCA7"/>
</svg>
