<svg width="618" height="150" viewBox="0 0 618 150" fill="none" xmlns="http://www.w3.org/2000/svg">
<path d="M29.9922 97.9023V148H0.695312V5.8125H56.1641C66.8411 5.8125 76.2161 7.76562 84.2891 11.6719C92.4271 15.5781 98.6771 21.1445 103.039 28.3711C107.401 35.5326 109.582 43.7031 109.582 52.8828C109.582 66.8151 104.797 77.8177 95.2266 85.8906C85.7214 93.8984 72.5378 97.9023 55.6758 97.9023H29.9922ZM29.9922 74.1719H56.1641C63.9115 74.1719 69.8034 72.349 73.8398 68.7031C77.9414 65.0573 79.9922 59.849 79.9922 53.0781C79.9922 46.112 77.9414 40.4805 73.8398 36.1836C69.7383 31.8867 64.0742 29.6732 56.8477 29.543H29.9922V74.1719Z" fill="#D1BCA7"/>
<path d="M201.223 137.258C194.257 145.721 184.621 149.953 172.316 149.953C160.988 149.953 152.329 146.698 146.34 140.188C140.415 133.677 137.388 124.139 137.258 111.574V42.3359H165.48V110.598C165.48 121.6 170.493 127.102 180.52 127.102C190.09 127.102 196.665 123.781 200.246 117.141V42.3359H228.566V148H202.004L201.223 137.258Z" fill="#D1BCA7"/>
<path d="M319.23 68.8008C315.389 68.2799 312.004 68.0195 309.074 68.0195C298.397 68.0195 291.398 71.6328 288.078 78.8594V148H259.855V42.3359H286.516L287.297 54.9336C292.961 45.2331 300.806 40.3828 310.832 40.3828C313.957 40.3828 316.887 40.806 319.621 41.6523L319.23 68.8008Z" fill="#D1BCA7"/>
<path d="M372.688 148H344.367V42.3359H372.688V148ZM342.707 14.9922C342.707 10.7604 344.107 7.27734 346.906 4.54297C349.771 1.80859 353.645 0.441406 358.527 0.441406C363.345 0.441406 367.186 1.80859 370.051 4.54297C372.915 7.27734 374.348 10.7604 374.348 14.9922C374.348 19.2891 372.883 22.8047 369.953 25.5391C367.089 28.2734 363.28 29.6406 358.527 29.6406C353.775 29.6406 349.934 28.2734 347.004 25.5391C344.139 22.8047 342.707 19.2891 342.707 14.9922Z" fill="#D1BCA7"/>
<path d="M432.004 42.3359L432.883 54.543C440.435 45.1029 450.559 40.3828 463.254 40.3828C474.452 40.3828 482.785 43.6706 488.254 50.2461C493.723 56.8216 496.522 66.6523 496.652 79.7383V148H468.43V80.4219C468.43 74.4323 467.128 70.1029 464.523 67.4336C461.919 64.6992 457.59 63.332 451.535 63.332C443.592 63.332 437.635 66.7174 433.664 73.4883V148H405.441V42.3359H432.004Z" fill="#D1BCA7"/>
<path d="M589.367 148C588.065 145.461 587.121 142.303 586.535 138.527C579.699 146.145 570.812 149.953 559.875 149.953C549.523 149.953 540.93 146.958 534.094 140.969C527.323 134.979 523.938 127.427 523.938 118.312C523.938 107.115 528.072 98.5208 536.34 92.5312C544.673 86.5417 556.685 83.5143 572.375 83.4492H585.363V77.3945C585.363 72.5117 584.094 68.6055 581.555 65.6758C579.081 62.7461 575.142 61.2812 569.738 61.2812C564.986 61.2812 561.242 62.4206 558.508 64.6992C555.839 66.9779 554.504 70.1029 554.504 74.0742H526.281C526.281 67.9544 528.169 62.2904 531.945 57.082C535.721 51.8737 541.06 47.8047 547.961 44.875C554.862 41.8802 562.609 40.3828 571.203 40.3828C584.224 40.3828 594.543 43.6706 602.16 50.2461C609.842 56.7565 613.684 65.9362 613.684 77.7852V123.586C613.749 133.612 615.148 141.197 617.883 146.34V148H589.367ZM566.027 128.371C570.194 128.371 574.035 127.46 577.551 125.637C581.066 123.749 583.671 121.242 585.363 118.117V99.9531H574.816C560.689 99.9531 553.169 104.836 552.258 114.602L552.16 116.262C552.16 119.777 553.397 122.674 555.871 124.953C558.345 127.232 561.73 128.371 566.027 128.371Z" fill="#D1BCA7"/>
</svg>
