<svg width="733" height="203" viewBox="0 0 733 203" fill="none" xmlns="http://www.w3.org/2000/svg">
<path fill-rule="evenodd" clip-rule="evenodd" d="M355.609 24.9291C362.397 24.9291 367.99 19.3433 367.99 12.4626C367.99 5.58199 362.4 0 355.609 0C352.337 0.0578875 349.218 1.39658 346.925 3.72784C344.632 6.0591 343.347 9.19649 343.347 12.4646C343.347 15.7327 344.632 18.8701 346.925 21.2013C349.218 23.5326 352.337 24.8713 355.609 24.9291ZM355.609 53.4414C362.397 53.4414 367.99 47.8555 367.99 40.9749C367.99 34.0981 362.4 28.5122 355.609 28.5122C352.3 28.5143 349.127 29.828 346.787 32.1648C344.447 34.5015 343.132 37.6702 343.129 40.9749C343.13 44.2802 344.445 47.4499 346.785 49.7875C349.125 52.1251 352.299 53.4393 355.609 53.4414ZM310.185 46.2635C310.186 49.5695 311.501 52.7398 313.842 55.0775C316.183 57.4152 319.357 58.7289 322.668 58.73C325.137 58.73 327.55 57.9988 329.603 56.629C331.656 55.2592 333.256 53.3122 334.201 51.0342C335.145 48.7562 335.393 46.2496 334.911 43.8314C334.429 41.4131 333.24 39.1918 331.495 37.4483C329.749 35.7048 327.525 34.5175 325.103 34.0365C322.682 33.5555 320.172 33.8023 317.891 34.7459C315.61 35.6895 313.66 37.2873 312.288 39.3374C310.917 41.3876 310.185 43.7978 310.185 46.2635ZM388.957 57.2279C392.266 57.2258 395.439 55.9121 397.779 53.5754C400.118 51.2386 401.434 48.0699 401.436 44.7653C401.436 41.459 400.121 38.288 397.78 35.9501C395.439 33.6122 392.264 32.2988 388.953 32.2988C385.642 32.2988 382.467 33.6122 380.126 35.9501C377.785 38.288 376.47 41.459 376.47 44.7653C376.472 48.0713 377.788 51.2412 380.13 53.5782C382.471 55.9151 385.646 57.2279 388.957 57.2279ZM395.044 29.1146C401.828 29.1146 407.421 23.5288 407.421 16.652C407.421 9.77139 401.828 4.1855 395.044 4.1855C391.733 4.1855 388.559 5.49875 386.218 7.83631C383.877 10.1739 382.562 13.3443 382.562 16.6501C382.562 19.9559 383.877 23.1263 386.218 25.4639C388.559 27.8014 391.733 29.1146 395.044 29.1146ZM316.076 29.7131C322.961 29.7131 328.555 24.0295 328.555 17.2466C328.553 13.942 327.237 10.7732 324.897 8.4365C322.558 6.09976 319.385 4.78606 316.076 4.78398C312.766 4.78502 309.592 6.09827 307.251 8.43513C304.911 10.772 303.595 13.9413 303.593 17.2466C303.593 24.0295 309.186 29.7131 316.076 29.7131ZM420.503 43.8695C418.2 43.8695 416.007 44.4641 414.107 45.6611C410.413 47.7577 408.016 51.7437 408.016 56.3321C408.016 60.8188 410.409 64.8088 414.107 67.0032C416.003 68.0985 418.2 68.7948 420.503 68.7948C427.389 68.7948 432.982 63.1111 432.982 56.3321C432.981 53.0271 431.666 49.8578 429.326 47.5209C426.986 45.1839 423.813 43.8706 420.503 43.8695ZM432.783 17.3483C425.889 17.3483 420.303 23.032 420.303 29.8109C420.303 33.1162 421.618 36.2861 423.959 38.6233C426.299 40.9605 429.473 42.2736 432.783 42.2736C436.092 42.2736 439.266 40.9605 441.607 38.6233C443.947 36.2861 445.262 33.1162 445.262 29.8109C445.262 23.032 439.668 17.3483 432.783 17.3483ZM414.111 74.0794C377.277 54.7362 338.339 53.4414 298.806 73.3831C298.207 73.6843 297.709 73.9816 297.208 74.1811C293.413 77.1736 292.218 79.8648 293.616 82.3565C294.415 84.6488 296.409 84.95 298.806 84.3476C299.703 84.1481 300.702 83.8508 301.701 83.4518C339.436 63.3106 377.974 61.918 413.316 83.8508C413.613 83.9486 413.813 84.0503 414.111 84.1481C415.811 84.8483 417.507 84.6449 419.802 82.9511C420.605 80.1582 419.9 77.9676 418.204 76.27C416.872 75.481 415.506 74.7501 414.111 74.0794Z" fill="#D1BCA7"/>
<path fill-rule="evenodd" clip-rule="evenodd" d="M412.619 87.34C381.566 66.6003 345.229 64.7032 303.295 85.5446C300.001 88.138 298.904 90.6298 300.103 92.8242C301.102 95.715 304.098 95.0187 307.388 93.8217C341.434 75.6754 376.27 74.3768 408.228 94.2207C410.018 95.1165 411.718 95.1165 414.021 93.3249C414.021 93.2232 414.021 93.1254 414.111 93.0237C414.409 91.9474 414.409 90.8103 414.111 89.734C413.807 88.8308 413.296 88.011 412.619 87.34ZM304.494 57.0324C304.493 54.9523 303.972 52.9054 302.978 51.0774C301.984 49.2494 300.549 47.6982 298.802 46.5647C296.785 45.2492 294.424 44.5554 292.014 44.5698C285.226 44.5698 279.531 50.1517 279.531 57.0324C279.531 63.913 285.223 69.495 292.014 69.495C294.509 69.495 296.805 68.7987 298.802 67.5C300.548 66.366 301.983 64.8147 302.977 62.9868C303.971 61.159 304.492 59.1123 304.494 57.0324ZM290.914 30.4095C290.943 28.754 290.641 27.1094 290.027 25.5715C289.413 24.0336 288.498 22.6334 287.336 21.4525C286.174 20.2716 284.788 19.3337 283.259 18.6935C281.73 18.0534 280.089 17.7238 278.431 17.7241C276.773 17.7244 275.132 18.0544 273.603 18.6951C272.074 19.3357 270.688 20.274 269.527 21.4553C268.365 22.6365 267.45 24.0371 266.837 25.5751C266.223 27.1132 265.922 28.7579 265.952 30.4134C266.01 33.6809 267.351 36.7949 269.686 39.0849C272.02 41.3748 275.162 42.6576 278.435 42.6571C281.707 42.6566 284.848 41.3728 287.182 39.0822C289.516 36.7915 290.856 33.6771 290.914 30.4095ZM226.325 121.137C227.719 115.754 227.022 112.164 224.123 110.47C221.229 107.974 218.134 107.176 214.84 108.076C214.143 108.377 213.344 108.674 212.545 109.073C204.257 117.949 195.871 126.723 187.489 135.595C178.601 126.719 170.016 118.348 161.03 109.468C157.834 107.274 154.043 107.775 151.344 109.468C150.545 109.969 149.848 110.47 149.346 111.064C146.252 115.25 145.853 119.838 148.148 123.531C149.245 124.626 150.243 125.725 151.34 126.821C160.423 136.69 169.612 146.563 178.797 156.432V193.62C181.194 198.506 184.387 200.896 188.28 200.501C193.274 200.501 195.969 198.111 197.665 194.321V155.634C203.356 148.753 209.145 141.775 214.836 134.894C218.734 130.314 222.529 125.628 226.325 121.137ZM270.448 106.284C265.854 105.083 262.462 106.48 259.967 110.071C257.17 113.458 254.475 116.951 251.776 120.437C238.996 136.791 226.916 153.741 214.836 170.69C211.041 176.17 207.148 181.557 203.254 187.045C202.056 191.833 203.254 195.518 206.846 198.111C209.541 199.809 212.236 200.501 214.832 200.204C216.408 199.978 217.93 199.47 219.325 198.706C223.818 192.92 228.213 187.045 232.705 181.259H258.165V193.225C259.763 197.911 263.155 200.305 268.447 200.305C273.738 200.305 276.934 197.712 278.031 192.427V113.861C277.338 108.976 274.843 106.386 270.448 106.284ZM251.78 161.521C249.885 161.521 247.887 161.521 245.987 161.619C247.696 158.554 249.633 155.621 251.78 152.845C253.48 150.651 255.376 148.558 257.374 146.465C257.374 151.449 257.573 156.534 257.573 161.419C255.572 161.419 253.68 161.419 251.78 161.521ZM109.214 108.275C87.0525 108.275 68.3807 123.73 63.5904 144.372C62.8932 147.76 62.3918 151.249 62.3918 154.84C62.3918 158.431 62.8893 161.92 63.5904 165.312C68.3847 186.051 87.0525 201.502 109.214 201.502C127.682 201.502 143.757 190.636 151.344 174.985C154.352 168.695 155.921 161.815 155.938 154.844C155.938 147.666 154.239 140.785 151.344 134.707C143.761 119.146 127.686 108.275 109.214 108.275ZM109.214 180.066C95.2387 180.066 83.9542 168.699 83.9542 154.84C83.9542 140.981 95.2348 129.617 109.214 129.617C123.088 129.617 134.47 140.981 134.47 154.84C134.47 168.699 123.092 180.066 109.214 180.066Z" fill="#D1BCA7"/>
<path fill-rule="evenodd" clip-rule="evenodd" d="M63.5904 187.342L48.9139 165.804C51.311 163.012 53.806 160.324 56.305 157.629C59.9947 151.347 61.9962 144.67 61.3969 137.39C60.0965 128.514 57.202 121.736 52.1139 117.648C46.6225 112.062 39.8306 108.772 31.2488 109.073C30.8453 109.073 30.5477 109.171 30.2461 109.171C23.2584 110.169 16.9718 112.265 10.8811 116.85C6.08681 121.035 2.69481 126.023 0 133.205L1.19856 190.827C2.39712 198.604 6.09073 202.394 12.0796 202.297C16.8739 202.097 19.9682 199.406 21.4644 194.321C21.5663 186.247 21.766 178.068 21.864 169.896C21.3665 168.797 21.766 167.799 22.8628 167.201C25.5576 167.799 26.055 169.794 27.0538 171.492C28.0526 172.885 29.1533 174.183 30.2461 175.482C36.7363 183.755 43.3284 191.934 49.9127 200.11C54.4053 202.203 58.4005 201.905 61.7925 199.112C62.4936 198.217 63.1908 197.317 63.5904 196.319C64.9887 193.527 65.2864 190.734 63.7901 187.643C63.7901 187.542 63.6883 187.44 63.5904 187.342ZM30.2421 150.056C24.3551 150.056 19.6627 145.37 19.6627 139.585C19.6627 133.799 24.3551 129.015 30.2421 129.015C36.0352 129.015 40.7276 133.803 40.7276 139.585C40.7276 145.366 36.0352 150.056 30.2421 150.056ZM634.748 106.085C629.265 106.085 625.367 108.678 624.267 115.058V191.43C625.967 197.61 629.758 199.406 634.349 199.308C639.343 199.21 643.538 197.313 646.029 191.332V114.659C644.431 108.678 640.737 105.784 634.748 106.085ZM722.51 105.483C717.614 105.686 714.621 108.174 713.125 112.164V157.727C703.243 141.376 693.356 124.924 683.474 108.674C680.176 105.385 675.687 104.587 669.894 106.382C665.601 107.876 662.911 110.865 661.708 115.352V191.625C661.908 196.609 665.304 198.901 671.892 198.706C677.086 198.307 680.278 195.917 681.578 191.625C681.48 175.775 681.48 159.82 681.379 143.966C691.065 160.495 700.715 177.045 710.328 193.617C712.526 197.008 715.82 199.101 721.711 198.205C727.202 198.005 730.7 195.017 732.795 190.029V112.363C730.896 107.681 727.398 105.389 722.51 105.483ZM599.81 106.284C594.914 106.48 591.921 108.976 590.425 112.962V158.525C580.543 142.174 570.657 125.722 560.774 109.468C557.578 106.179 552.988 105.385 547.194 107.176C543.003 108.674 540.211 111.663 539.008 116.15V192.521C539.208 197.411 542.604 199.699 549.29 199.5C554.386 199.101 557.574 196.707 558.875 192.521C558.777 176.569 558.777 160.618 558.675 144.764L587.73 194.414C589.826 197.802 593.116 199.895 599.007 199.003C604.6 198.803 607.996 195.815 610.092 190.824V113.157C608.192 108.479 604.796 106.183 599.81 106.284ZM441.368 169.395C435.278 175.376 429.289 178.866 423.598 179.664C415.909 180.661 409.92 179.366 405.925 175.674C400.539 171.684 397.041 166.798 395.443 160.919C394.143 155.634 394.241 150.154 395.741 144.372C397.539 139.084 400.935 135 405.925 132.008C410.323 129.117 415.31 128.018 420.703 127.92C427.589 128.217 433.28 131.609 438.274 135.501C443.362 139.088 447.455 139.088 452.054 135.7C455.242 131.413 456.147 127.024 452.551 121.642C451.349 119.647 445.16 107.184 419.403 106.687C393.645 106.089 372.674 127.525 372.674 153.248C372.674 178.967 393.645 199.906 419.403 199.906C445.16 199.906 451.548 187.643 454.349 182.961C456.245 178.275 455.841 174.387 453.049 171.492C449.958 168.5 446.363 167.4 441.368 169.395ZM486.992 120.441C484.319 116.942 481.589 113.487 478.806 110.075C476.311 106.484 472.915 105.091 468.324 106.288C463.926 106.386 461.333 108.98 460.734 113.865V192.431C461.736 197.716 464.925 200.309 470.212 200.309C475.606 200.309 479.002 197.919 480.6 193.229V181.263H506.06C510.548 187.049 514.943 192.924 519.432 198.71C523.533 200.904 527.724 200.708 531.919 198.115C535.514 195.521 536.709 191.837 535.514 187.049C519.537 164.709 503.862 142.178 486.992 120.441ZM486.992 161.521C485.096 161.423 483.099 161.423 481.199 161.423C481.199 156.538 481.399 151.453 481.399 146.469C483.397 148.562 485.292 150.655 486.992 152.849C489.088 155.54 490.987 158.435 492.785 161.623C490.788 161.521 488.888 161.521 486.992 161.521ZM335.445 179.163H311.285V114.057C310.988 103.789 290.918 103.887 290.918 114.057V193.026C291.219 196.316 292.414 198.111 294.611 198.408H335.445C345.926 198.209 346.126 178.768 335.445 179.163Z" fill="#D1BCA7"/>
</svg>
