<svg width="70" height="71" viewBox="0 0 70 71" fill="none" xmlns="http://www.w3.org/2000/svg">
<g clip-path="url(#clip0_34_2)">
<g filter="url(#filter0_d_34_2)">
<rect y="0.0300293" width="70" height="70" fill="#90CCFF"/>
</g>
</g>
<path d="M51.4779 36.1126L53.2617 35.8544C53.4803 35.8227 53.6774 35.7054 53.8096 35.5284C53.9418 35.3514 53.9982 35.1291 53.9665 34.9104C53.9347 34.6918 53.8175 34.4947 53.6404 34.3625C53.4634 34.2304 53.2411 34.1739 53.0224 34.2057L51.4779 34.4292V19.8958C51.478 19.1101 51.2377 18.3432 50.7894 17.6981C50.341 17.0529 49.706 16.5604 48.9696 16.2865C48.2332 16.0127 47.4307 15.9708 46.6698 16.1663C45.9088 16.3618 45.2259 16.7854 44.7127 17.3803L39.5662 23.3439C38.1944 22.5761 36.646 22.1798 35.074 22.194C33.5041 22.1716 31.9572 22.5734 30.5965 23.3569L25.5005 17.4202C24.9882 16.8237 24.3054 16.3983 23.5441 16.2013C22.7828 16.0043 21.9795 16.0451 21.242 16.3183C20.5046 16.5914 19.8685 17.0837 19.4192 17.7291C18.9699 18.3745 18.729 19.142 18.7289 19.9284V34.4591L16.9776 34.2057C16.7589 34.174 16.5366 34.2304 16.3596 34.3625C16.1826 34.4947 16.0653 34.6918 16.0335 34.9104C16.0018 35.1291 16.0582 35.3514 16.1904 35.5284C16.3226 35.7054 16.5197 35.8227 16.7383 35.8544L18.7289 36.1425V38.1941C18.733 39.4099 18.8778 40.621 19.1602 41.8035L16.6691 42.3828C16.47 42.4291 16.2949 42.5471 16.1771 42.7142C16.0593 42.8812 16.0071 43.0858 16.0303 43.2889C16.0535 43.492 16.1506 43.6795 16.303 43.8157C16.4555 43.9518 16.6527 44.0272 16.8571 44.0275C16.921 44.0278 16.9846 44.0204 17.0467 44.0055L19.6285 43.4051C20.7107 46.5027 22.7281 49.1878 25.4021 51.0894C28.076 52.991 31.2745 54.0154 34.5557 54.021H35.6511C38.9241 54.0154 42.1151 52.9959 44.7852 51.1029C47.4553 49.2099 49.4734 46.5361 50.562 43.4494L52.9533 44.0055C53.0154 44.0204 53.079 44.0277 53.1429 44.0275C53.3473 44.0272 53.5445 43.9518 53.697 43.8156C53.8494 43.6795 53.9465 43.492 53.9697 43.2889C53.9929 43.0858 53.9407 42.8812 53.8229 42.7141C53.7051 42.5471 53.53 42.4291 53.3309 42.3828L51.0349 41.8488C51.3248 40.6521 51.4734 39.4255 51.4779 38.1941V36.1126ZM44.0788 41.9417L48.9281 43.0695C47.9292 45.7885 46.1211 48.1362 43.7472 49.7963C41.3734 51.4564 38.5478 52.3491 35.651 52.3543H34.5557C31.6509 52.3491 28.8178 51.4514 26.4401 49.7828C24.0624 48.1141 22.2549 45.7551 21.2624 43.0251L25.9212 41.9417C26.1361 41.8913 26.3221 41.7577 26.4386 41.5703C26.555 41.3828 26.5923 41.1568 26.5423 40.9419C26.4923 40.727 26.359 40.5407 26.1718 40.4239C25.9846 40.3071 25.7586 40.2694 25.5436 40.319L20.7822 41.4262C20.529 40.3674 20.3992 39.2828 20.3955 38.1941V36.3837L25.6128 37.1386C25.6526 37.1448 25.6929 37.1478 25.7332 37.1476C25.9437 37.1473 26.1463 37.0674 26.3003 36.9239C26.4542 36.7804 26.5482 36.5839 26.5632 36.374C26.5783 36.164 26.5133 35.9561 26.3814 35.7921C26.2494 35.6281 26.0603 35.5201 25.852 35.4899L20.3955 34.7003V19.9283C20.3895 19.481 20.5237 19.043 20.7793 18.6758C21.0348 18.3086 21.3989 18.0306 21.8205 17.8808C22.072 17.7885 22.3379 17.7412 22.6058 17.7408C22.9172 17.7397 23.2249 17.8078 23.5068 17.9401C23.7887 18.0724 24.0377 18.2656 24.2359 18.5058L29.6029 24.7583C29.6083 24.777 29.6207 24.7919 29.6274 24.8101C29.6406 24.8437 29.6561 24.8765 29.6738 24.908C29.7028 24.9641 29.7382 25.0166 29.7792 25.0646C29.8025 25.0926 29.8277 25.119 29.8545 25.1437C29.9046 25.1871 29.9598 25.2242 30.0188 25.2543C30.0462 25.2713 30.0746 25.2865 30.1039 25.3C30.1991 25.3388 30.3008 25.3593 30.4037 25.3605C30.5293 25.3605 30.6533 25.332 30.7663 25.2772C30.7933 25.2585 30.8192 25.2383 30.8438 25.2165C30.9188 25.1746 30.9869 25.1213 31.0457 25.0586C32.2281 24.2434 33.6384 23.824 35.0741 23.8607C36.5444 23.8354 37.9867 24.2646 39.2041 25.0895C39.3666 25.1911 39.5544 25.245 39.7461 25.245C39.8658 25.2449 39.9841 25.2191 40.093 25.1693C40.2018 25.1194 40.2986 25.0467 40.3768 24.9561L45.9742 18.4692C46.2653 18.1319 46.6526 17.8917 47.0841 17.7808C47.5157 17.67 47.9708 17.6938 48.3885 17.849C48.8061 18.0043 49.1663 18.2836 49.4206 18.6495C49.6749 19.0154 49.8112 19.4503 49.8112 19.8958V34.6704L44.148 35.4899C43.9397 35.5201 43.7506 35.6281 43.6186 35.7921C43.4867 35.9561 43.4217 36.164 43.4368 36.374C43.4518 36.5839 43.5458 36.7804 43.6998 36.9239C43.8537 37.0674 44.0563 37.1473 44.2668 37.1476C44.3071 37.1478 44.3474 37.1448 44.3872 37.1386L49.8112 36.3538V38.1941C49.8072 39.2985 49.6735 40.3985 49.4129 41.4716L44.4564 40.319C44.3498 40.294 44.2393 40.2902 44.1312 40.308C44.0231 40.3257 43.9196 40.3646 43.8266 40.4224C43.7336 40.4802 43.6528 40.5557 43.589 40.6448C43.5252 40.7338 43.4796 40.8345 43.4548 40.9412C43.43 41.0479 43.4264 41.1584 43.4444 41.2664C43.4623 41.3745 43.5014 41.4779 43.5593 41.5709C43.6173 41.6638 43.693 41.7444 43.7822 41.808C43.8713 41.8716 43.972 41.9171 44.0788 41.9417Z" fill="white"/>
<path d="M30.5664 33.1379C30.6433 33.2165 30.7349 33.2791 30.8361 33.322C30.9373 33.3649 31.046 33.3874 31.1559 33.388C31.2658 33.3886 31.3748 33.3674 31.4764 33.3256C31.5781 33.2839 31.6705 33.2223 31.7482 33.1446C31.8259 33.0669 31.8875 32.9745 31.9292 32.8728C31.971 32.7712 31.9922 32.6622 31.9916 32.5523C31.991 32.4424 31.9685 32.3337 31.9256 32.2325C31.8827 32.1313 31.8201 32.0397 31.7415 31.9628C31.7057 31.9204 31.6634 31.8839 31.6162 31.8546C31.5747 31.8302 31.5251 31.8049 31.4746 31.7797C31.4234 31.7611 31.3705 31.7472 31.3167 31.7382C31.1551 31.7024 30.9865 31.7169 30.8333 31.7797C30.7334 31.8229 30.6427 31.8851 30.5664 31.9628C30.4875 32.0378 30.4253 32.1284 30.3837 32.2289C30.342 32.3294 30.322 32.4376 30.3247 32.5463C30.3207 32.6564 30.3401 32.7662 30.3818 32.8682C30.4235 32.9702 30.4864 33.0622 30.5664 33.1379Z" fill="white"/>
<path d="M39.0161 33.3797C39.1245 33.3801 39.232 33.359 39.3322 33.3175C39.4323 33.276 39.5232 33.215 39.5996 33.138C39.6785 33.0609 39.7412 32.9689 39.7841 32.8673C39.827 32.7657 39.8492 32.6566 39.8494 32.5463C39.849 32.4373 39.8267 32.3295 39.7838 32.2292C39.7408 32.129 39.6782 32.0384 39.5996 31.9629C39.5639 31.9206 39.5219 31.8841 39.4751 31.8546C39.4328 31.8302 39.3831 31.805 39.3335 31.7797C39.283 31.7635 39.2334 31.7464 39.1748 31.7301C39.0402 31.7046 38.9015 31.7125 38.7707 31.7531C38.6399 31.7936 38.521 31.8657 38.4245 31.9629C38.3471 32.0389 38.2859 32.1298 38.2444 32.23C38.2029 32.3303 38.1819 32.4379 38.1828 32.5463C38.1817 32.6561 38.2026 32.7649 38.2441 32.8665C38.2856 32.9681 38.3469 33.0604 38.4245 33.138C38.5021 33.2156 38.5944 33.2769 38.696 33.3184C38.7976 33.3599 38.9064 33.3807 39.0161 33.3797Z" fill="white"/>
<path d="M39.8413 43.8745C39.7318 43.8744 39.6235 43.8959 39.5223 43.9378C39.4212 43.9797 39.3293 44.041 39.2519 44.1184C39.1745 44.1958 39.1131 44.2877 39.0713 44.3888C39.0294 44.49 39.0079 44.5984 39.008 44.7078C39.008 45.3133 38.3048 45.8244 37.4723 45.8244C36.6398 45.8244 35.9367 45.3133 35.9367 44.7078V41.1134C36.5111 41.0583 37.0487 40.8061 37.4583 40.3996C37.8678 39.9931 38.1241 39.4574 38.1836 38.8834C38.1836 37.5805 36.8302 36.5592 35.1033 36.5592C33.3764 36.5592 32.0239 37.5805 32.0239 38.8834C32.0832 39.4573 32.3394 39.993 32.7488 40.3994C33.1582 40.8059 33.6957 41.0582 34.27 41.1134V44.7078C34.27 45.3133 33.5669 45.8244 32.7344 45.8244C31.9018 45.8244 31.1987 45.3133 31.1987 44.7078C31.1987 44.4868 31.1109 44.2748 30.9546 44.1186C30.7984 43.9623 30.5864 43.8745 30.3654 43.8745C30.1444 43.8745 29.9324 43.9623 29.7761 44.1186C29.6198 44.2748 29.532 44.4868 29.532 44.7078C29.5922 45.4998 29.9622 46.2361 30.5616 46.7571C31.1611 47.2781 31.9417 47.5418 32.7344 47.491C33.6141 47.4993 34.463 47.1671 35.1033 46.5638C35.7437 47.1671 36.5926 47.4993 37.4723 47.491C38.2649 47.5418 39.0456 47.2781 39.645 46.7571C40.2445 46.2361 40.6144 45.4998 40.6746 44.7078C40.6747 44.5984 40.6532 44.49 40.6113 44.3888C40.5695 44.2877 40.5081 44.1958 40.4307 44.1184C40.3533 44.041 40.2614 43.9797 40.1603 43.9378C40.0591 43.8959 39.9508 43.8744 39.8413 43.8745ZM33.6906 38.8834C33.6906 38.6515 34.2269 38.2259 35.1033 38.2259C35.9806 38.2259 36.5169 38.6515 36.5169 38.8834C36.5169 39.1154 35.9806 39.5402 35.1033 39.5402C34.2269 39.5402 33.6906 39.1154 33.6906 38.8834Z" fill="white"/>
<defs>
<filter id="filter0_d_34_2" x="-4" y="0.0300293" width="78" height="78" filterUnits="userSpaceOnUse" color-interpolation-filters="sRGB">
<feFlood flood-opacity="0" result="BackgroundImageFix"/>
<feColorMatrix in="SourceAlpha" type="matrix" values="0 0 0 0 0 0 0 0 0 0 0 0 0 0 0 0 0 0 127 0" result="hardAlpha"/>
<feOffset dy="4"/>
<feGaussianBlur stdDeviation="2"/>
<feComposite in2="hardAlpha" operator="out"/>
<feColorMatrix type="matrix" values="0 0 0 0 0 0 0 0 0 0 0 0 0 0 0 0 0 0 0.25 0"/>
<feBlend mode="normal" in2="BackgroundImageFix" result="effect1_dropShadow_34_2"/>
<feBlend mode="normal" in="SourceGraphic" in2="effect1_dropShadow_34_2" result="shape"/>
</filter>
<clipPath id="clip0_34_2">
<rect y="0.0300293" width="70" height="70" rx="35" fill="white"/>
</clipPath>
</defs>
</svg>
