<svg width="70" height="71" viewBox="0 0 70 71" fill="none" xmlns="http://www.w3.org/2000/svg">
<g clip-path="url(#clip0_34_3)">
<rect y="0.0300293" width="70" height="70" fill="#FF5B2E"/>
</g>
<path d="M46.92 19.43C46 18.91 44.92 18.63 43.8 18.63H26.2C25.08 18.63 24 18.95 23.08 19.43C19.72 19.63 17 22.43 17 25.83V34.63C17 35.07 17.36 35.43 17.8 35.43C18.52 35.43 19.16 35.31 19.8 35.11V35.43C19.8 38.23 20.68 40.83 22.24 42.91C22.24 43.07 22.2 43.27 22.2 43.43C22.2 47.19 25.24 50.23 29 50.23C29.76 50.23 30.48 50.11 31.16 49.87C32.16 50.83 33.52 51.43 35 51.43C36.48 51.43 37.84 50.83 38.84 49.87C39.52 50.11 40.24 50.23 41 50.23C44.76 50.23 47.8 47.19 47.8 43.43C47.8 43.27 47.8 43.07 47.76 42.91C49.32 40.83 50.2 38.23 50.2 35.43V35.11C50.84 35.31 51.48 35.43 52.2 35.43C52.64 35.43 53 35.07 53 34.63V25.83C53 22.43 50.28 19.63 46.92 19.43ZM18.6 33.75V25.83C18.6 23.47 20.32 21.47 22.6 21.11V29.03C22.6 31.39 20.88 33.39 18.6 33.75ZM29 48.63C26.12 48.63 23.8 46.31 23.8 43.43C23.8 40.55 26.12 38.23 29 38.23H31.92C32.2 39.35 33.08 40.23 34.2 40.51V43.43C34.2 46.31 31.88 48.63 29 48.63ZM33.4 37.43C33.4 36.55 34.12 35.83 35 35.83C35.88 35.83 36.6 36.55 36.6 37.43C36.6 38.31 35.88 39.03 35 39.03C34.12 39.03 33.4 38.31 33.4 37.43ZM35 49.83C34.16 49.83 33.36 49.55 32.72 49.11C33.68 48.47 34.44 47.63 35 46.63C35.52 47.63 36.32 48.51 37.28 49.11C36.64 49.55 35.84 49.83 35 49.83ZM41 48.63C38.12 48.63 35.8 46.31 35.8 43.43V40.51C36.92 40.23 37.8 39.35 38.08 38.23H41C43.88 38.23 46.2 40.55 46.2 43.43C46.2 46.31 43.88 48.63 41 48.63ZM48.6 35.43C48.6 37.35 48.12 39.15 47.24 40.75C46.2 38.35 43.8 36.63 41 36.63H38.08C37.72 35.27 36.48 34.23 35 34.23C33.52 34.23 32.28 35.27 31.92 36.63H29C26.2 36.63 23.8 38.35 22.76 40.75C21.88 39.15 21.4 37.35 21.4 35.43V34.31C23.08 33.15 24.2 31.23 24.2 29.03V20.67C24.8 20.39 25.48 20.23 26.2 20.23H43.8C44.52 20.23 45.2 20.39 45.8 20.67V29.03C45.8 31.23 46.92 33.15 48.6 34.31V35.43ZM51.4 33.75C49.12 33.39 47.4 31.39 47.4 29.03V21.11C49.68 21.51 51.4 23.47 51.4 25.83V33.75ZM29.96 30.47C30.12 30.63 30.2 30.83 30.2 31.03C30.2 31.23 30.12 31.43 29.96 31.59C29.8 31.75 29.6 31.83 29.4 31.83C29.36 31.83 29.28 31.83 29.24 31.83C29.2 31.83 29.16 31.79 29.08 31.79C29.04 31.79 29 31.75 28.96 31.71C28.92 31.67 28.88 31.67 28.84 31.63C28.68 31.43 28.6 31.23 28.6 31.03C28.6 30.83 28.68 30.63 28.84 30.47C28.88 30.43 28.92 30.39 28.96 30.39C29 30.39 29.04 30.35 29.08 30.31C29.12 30.31 29.16 30.27 29.24 30.27C29.36 30.27 29.44 30.27 29.56 30.27C29.6 30.27 29.64 30.31 29.72 30.31C29.76 30.35 29.8 30.35 29.84 30.39C29.88 30.43 29.92 30.43 29.96 30.47ZM41.4 30.87C41.4 30.91 41.4 30.99 41.4 31.03C41.4 31.07 41.4 31.15 41.4 31.19C41.4 31.23 41.36 31.27 41.36 31.35C41.36 31.39 41.32 31.43 41.28 31.47C41.24 31.51 41.24 31.55 41.2 31.59C41 31.75 40.8 31.83 40.6 31.83C40.4 31.83 40.2 31.75 40.04 31.59C39.88 31.43 39.8 31.23 39.8 31.03C39.8 30.99 39.8 30.91 39.8 30.87C39.8 30.83 39.84 30.79 39.84 30.71C39.84 30.67 39.88 30.63 39.92 30.59C39.96 30.55 39.96 30.51 40 30.47C40.28 30.19 40.84 30.19 41.12 30.47C41.16 30.51 41.2 30.55 41.2 30.59C41.24 30.63 41.24 30.67 41.28 30.71C41.36 30.79 41.36 30.83 41.4 30.87Z" fill="white"/>
<defs>
<clipPath id="clip0_34_3">
<rect y="0.0300293" width="70" height="70" rx="35" fill="white"/>
</clipPath>
</defs>
</svg>
