<svg width="70" height="71" viewBox="0 0 70 71" fill="none" xmlns="http://www.w3.org/2000/svg">
<g clip-path="url(#clip0_34_5)">
<rect y="0.0300293" width="70" height="70" fill="#5BD6E2"/>
</g>
<path fill-rule="evenodd" clip-rule="evenodd" d="M43.1481 15.0301C42.9658 15.0106 42.7898 15.0579 42.6207 15.1473L29.9628 21.866C25.0109 23.2841 21.725 28.5185 21.3094 29.2098C18.3303 32.8804 15.3224 35.7252 15.293 35.7527C15.1036 35.9315 14.9988 36.1763 15 36.4363C15.0013 36.6963 15.1024 36.9431 15.293 37.1199C15.3243 37.1487 18.4311 40.0156 21.4071 43.6824C21.8896 44.4949 26.1842 51.3973 32.4632 51.3973C32.6492 51.3973 32.8248 51.3899 33.0101 51.3777L45.2382 54.3856C45.3126 54.4037 45.3982 54.4051 45.4726 54.4051C45.797 54.4051 46.1016 54.2434 46.2735 53.9559C46.4848 53.6027 46.432 53.1482 46.1563 52.8426L40.8627 46.9832C41.7113 46.0566 42.545 44.9956 43.363 43.7801C43.3786 43.7582 44.964 41.534 47.4455 41.534C48.9864 41.534 50.6488 42.3746 52.329 44.034C52.599 44.2996 53.0759 44.3737 53.4229 44.2293C53.7723 44.0837 54.1261 43.7285 54.1261 43.3504V29.5809C54.1261 29.2034 53.7723 28.847 53.4229 28.702C53.0753 28.5563 52.5392 28.631 52.2704 28.8973C50.5939 30.5523 48.9612 31.3973 47.426 31.3973C44.9457 31.3973 43.3774 29.1523 43.363 29.1317C42.5172 27.8749 41.6623 26.779 40.7845 25.8309L43.949 16.2606C44.069 15.8968 43.9485 15.4924 43.656 15.2449C43.5097 15.1215 43.3304 15.0495 43.1481 15.0301ZM41.4291 17.9012L39.2804 24.3856C37.6477 22.9755 35.9592 22.0768 34.2407 21.7098L41.4291 17.9012ZM32.4632 23.3895C35.6486 23.3895 38.8418 25.6745 41.8784 30.1863C41.9634 30.3126 44.0685 33.2723 47.5627 33.2723C49.0773 33.2723 50.3756 32.7196 52.2508 31.6121V41.3192C50.3756 40.2092 49.0621 39.6395 47.5432 39.6395C44.0503 39.6395 41.8859 42.5985 41.8003 42.7254C38.7649 47.2354 35.6261 49.5223 32.4632 49.5223C27.0225 49.5223 23.0293 42.7545 22.9893 42.6863C22.9649 42.6438 22.9418 42.6067 22.9112 42.5692C20.674 39.8054 18.4056 37.5062 17.2855 36.4168C18.38 35.3343 20.5876 33.092 22.8135 30.3426C22.8435 30.3057 22.8868 30.2667 22.9112 30.2254C22.9361 30.1823 24.5551 27.4553 27.1305 25.4598C27.1902 25.4422 27.2492 25.4119 27.3063 25.3817L30.4903 23.6824C31.126 23.4973 31.7768 23.3895 32.4632 23.3895ZM31.7209 29.3074C31.6005 29.3227 31.4807 29.3601 31.3693 29.4246C30.9217 29.6827 30.7608 30.246 31.0177 30.6942C31.1264 30.8835 33.646 35.3965 30.9981 40.5965C30.7631 41.0584 30.947 41.6115 31.4083 41.8465C31.5446 41.9152 31.6943 41.9442 31.8381 41.9442C32.1794 41.9442 32.5124 41.7613 32.678 41.4363C35.8016 35.3013 32.7684 29.9804 32.639 29.7567C32.4435 29.4215 32.0822 29.2617 31.7209 29.3074ZM35.9988 29.3074C35.8783 29.3227 35.7587 29.3601 35.6472 29.4246C35.1996 29.6827 35.0582 30.246 35.3151 30.6942C35.4239 30.8835 37.9434 35.3965 35.2956 40.5965C35.0605 41.0584 35.2445 41.6115 35.7058 41.8465C35.842 41.9152 35.9728 41.9442 36.116 41.9442C36.4573 41.9442 36.7903 41.7613 36.9559 41.4363C40.0794 35.3013 37.0664 29.9804 36.9364 29.7567C36.7414 29.4215 36.3603 29.2617 35.9988 29.3074ZM25.392 32.452C23.6192 32.452 22.1689 33.8423 22.1689 35.5379C22.1689 37.2329 23.6192 38.6043 25.392 38.6043C27.1647 38.6043 28.615 37.2329 28.615 35.5379C28.615 33.8423 27.1647 32.452 25.392 32.452ZM25.392 34.327C26.1308 34.327 26.7398 34.876 26.7398 35.5379C26.7398 36.1992 26.1308 36.7293 25.392 36.7293C24.6531 36.7293 24.0441 36.1992 24.0441 35.5379C24.0441 34.876 24.6531 34.327 25.392 34.327ZM39.5539 48.3113L42.7184 51.827L36.6629 50.3426C37.6346 49.843 38.6115 49.1595 39.5539 48.3113Z" fill="white"/>
<defs>
<clipPath id="clip0_34_5">
<rect y="0.0300293" width="70" height="70" rx="35" fill="white"/>
</clipPath>
</defs>
</svg>
