<svg width="70" height="71" viewBox="0 0 70 71" fill="none" xmlns="http://www.w3.org/2000/svg">
<g clip-path="url(#clip0_34_4)">
<rect y="0.0300293" width="70" height="70" fill="#FABF3E"/>
</g>
<path d="M31.0604 38.9423C31.0604 38.0376 30.3272 37.304 29.4221 37.304C29.1651 37.304 28.9229 37.3648 28.7065 37.4703C28.0252 37.5954 27.0427 37.7066 26.656 37.4079C26.656 37.4079 27.085 38.1335 27.883 38.3854C27.82 38.5594 27.7838 38.7464 27.7838 38.9422C27.7838 39.8471 28.5172 40.5806 29.4221 40.5806C30.3271 40.5807 31.0604 39.8472 31.0604 38.9423Z" fill="white"/>
<path d="M38.6477 46.3165C38.5727 46.3523 38.4917 46.3919 38.4051 46.4341C37.7309 46.7632 36.6797 47.2747 35.5 47.4404V45.0667C36.0335 44.7252 36.6118 44.2186 36.6118 43.6256C36.6118 42.5255 35.7198 42.6052 34.6199 42.6052C33.5199 42.6052 32.6282 42.5255 32.6282 43.6256C32.6282 44.2408 33.2509 44.7634 33.8 45.1047V47.4063C32.7079 47.2128 31.7421 46.7432 31.1091 46.4342C31.0226 46.3919 30.9417 46.3525 30.8668 46.3166C30.4433 46.1143 29.9358 46.2934 29.7333 46.7168C29.5308 47.1403 29.71 47.6479 30.1335 47.8504C30.2046 47.8844 30.2814 47.9219 30.3635 47.9619C31.3086 48.4231 32.8904 49.1951 34.7571 49.1951C36.6238 49.1951 38.2056 48.4232 39.1508 47.962C39.233 47.9219 39.3099 47.8844 39.381 47.8504C39.8045 47.6479 39.9837 47.1404 39.7813 46.7169C39.5786 46.2934 39.0713 46.1141 38.6477 46.3165Z" fill="white"/>
<path d="M52.5899 46.9348L48.0208 46.4488C48.2561 45.8949 48.4474 45.3175 48.5959 44.7195L52.4101 45.1253C52.4407 45.1285 52.471 45.1302 52.5011 45.1302C52.9301 45.1302 53.2989 44.8063 53.3452 44.37C53.3949 43.9032 53.0567 43.4845 52.5899 43.4348L48.8916 43.0413C48.9438 42.5572 48.971 42.0622 48.971 41.5563C48.971 39.9797 47.9762 28.0178 47.9345 27.5181L47.4446 20.7973C47.4315 18.4105 45.9509 15.8866 43.2175 15.8866C41.8188 15.8866 39.4736 16.787 39.4675 22.8103L39.1047 29.5994C37.7028 29.1488 36.2315 28.9146 34.7427 28.9146C33.1923 28.9146 31.6655 29.1669 30.2158 29.6528L29.85 22.8071C29.844 16.7809 27.4987 15.88 26.1 15.88C23.3675 15.88 21.8631 18.3988 21.8489 20.7816L21.3 27.4872C21.3 27.4884 21.3 27.4896 21.3 27.4909C21.3 27.4922 21.3235 27.4933 21.3234 27.4945C21.2877 28.0074 20.4603 40.072 20.4603 41.5431C20.4603 42.074 20.4963 42.5928 20.5538 43.0997L17.4072 43.4348C16.9404 43.4844 16.6037 43.9032 16.6533 44.37C16.6997 44.8062 17.0692 45.1302 17.4983 45.1302C17.5283 45.1302 17.559 45.1285 17.5896 45.1253L20.8647 44.7769C21.0169 45.3748 21.2129 45.9514 21.4521 46.5049L17.4101 46.9349C16.9433 46.9845 16.6052 47.4033 16.6548 47.8701C16.7012 48.3063 17.0699 48.6303 17.499 48.6303C17.529 48.6303 17.5594 48.6286 17.5899 48.6254L22.3154 48.1227C22.9547 49.1121 23.7559 50.0053 24.713 50.7881C27.2654 52.8759 30.8199 54.0256 34.7216 54.0256C38.6243 54.0256 42.1785 52.8783 44.7297 50.7952C45.7077 49.9966 46.5225 49.0821 47.1685 48.0678L52.4101 48.6254C52.4407 48.6286 52.471 48.6303 52.5011 48.6303C52.9301 48.6303 53.2989 48.3064 53.3452 47.8701C53.3949 47.4031 53.0567 46.9844 52.5899 46.9348ZM34.7216 52.3254C30.6761 52.3254 26.6077 50.9263 24.2424 47.9175L26.9899 47.6252C27.4567 47.5756 27.7949 47.1568 27.7452 46.69C27.6956 46.2232 27.2767 45.8854 26.8101 45.9347L23.2283 46.3158C22.9615 45.7803 22.7406 45.2068 22.5706 44.5953L26.9899 44.1252C27.4567 44.0756 27.7949 43.6568 27.7452 43.19C27.6956 42.7233 27.2767 42.3856 26.8101 42.4347L22.2481 42.9201C22.1983 42.4776 22.1723 42.0188 22.1723 41.543C22.1723 40.4131 22.7417 31.9414 23.0431 27.6162L23.5702 20.8824C23.5719 20.8603 23.5728 20.8382 23.5728 20.816C23.5728 19.9159 24.0268 17.5799 26.1 17.5799C28.0021 17.5799 28.15 21.5983 28.15 22.8299C28.15 22.845 28.1504 22.8601 28.1512 22.8753L28.5495 30.3308C28.0863 30.5549 27.6339 30.804 27.1952 31.0791C26.7974 31.3284 26.6771 31.853 26.9265 32.2507C27.0879 32.5081 27.3645 32.6493 27.6475 32.6493C27.8017 32.6493 27.9579 32.6074 28.0981 32.5194C30.086 31.2732 32.3836 30.6145 34.7425 30.6145C36.9988 30.6145 39.2106 31.2208 41.1386 32.3678C41.5419 32.6079 42.0637 32.4754 42.3036 32.072C42.5436 31.6685 42.4112 31.1469 42.0077 30.9069C41.6061 30.668 41.1935 30.4502 40.7721 30.253L41.1661 22.8786C41.1669 22.8635 41.1673 22.8484 41.1673 22.8332C41.1673 21.4671 41.3066 20.2744 41.5699 19.3839C42.1014 17.5865 42.9413 17.5865 43.2173 17.5865C45.2905 17.5865 45.7445 19.9273 45.7445 20.8293C45.7445 20.8499 45.7453 20.8705 45.7467 20.8911L46.2395 27.6504C46.5962 31.933 47.2708 40.3507 47.2708 41.5562C47.2708 42.0064 47.2473 42.4413 47.2024 42.8615L43.1897 42.4346C42.7229 42.3855 42.3042 42.7231 42.2545 43.1899C42.2048 43.6567 42.543 44.0754 43.0098 44.1251L46.891 44.538C46.7253 45.1498 46.5082 45.7234 46.2457 46.2598L43.1897 45.9347C42.7229 45.8854 42.3042 46.2231 42.2545 46.69C42.2048 47.1568 42.543 47.5755 43.0098 47.6252L45.2474 47.8633C42.8895 50.9096 38.7938 52.3254 34.7216 52.3254Z" fill="white"/>
<path d="M42.7604 37.4079C42.3737 37.7066 41.3913 37.5954 40.7099 37.4703C40.4935 37.3648 40.2513 37.304 39.9943 37.304C39.0892 37.304 38.356 38.0376 38.356 38.9423C38.356 39.8472 39.0892 40.5807 39.9943 40.5807C40.8992 40.5807 41.6326 39.8472 41.6326 38.9423C41.6326 38.7465 41.5965 38.5595 41.5335 38.3855C42.3314 38.1335 42.7604 37.4079 42.7604 37.4079Z" fill="white"/>
<defs>
<clipPath id="clip0_34_4">
<rect y="0.0300293" width="70" height="70" rx="35" fill="white"/>
</clipPath>
</defs>
</svg>
