<svg width="888" height="888" viewBox="0 0 888 888" fill="none" xmlns="http://www.w3.org/2000/svg">
<circle cx="444" cy="444" r="444" fill="#FF5B2E" fill-opacity="0.07"/>
<path d="M666.186 327.539C646.292 286.667 588.987 253.227 522.329 272.697C490.476 281.908 462.685 301.66 443.497 328.728C424.308 301.66 396.517 281.908 364.665 272.697C297.858 253.524 240.701 286.667 220.808 327.539C192.897 384.759 204.477 449.114 255.25 518.818C295.037 573.363 351.897 628.651 434.441 692.857C437.049 694.894 440.263 696 443.571 696C446.879 696 450.093 694.894 452.701 692.857C535.096 628.8 592.104 573.958 631.892 518.818C682.516 449.114 694.096 384.759 666.186 327.539V327.539Z" fill="#FF5B2E"/>
</svg>
